<svg width="1509" height="1655" viewBox="0 0 1509 1655" fill="none" xmlns="http://www.w3.org/2000/svg">
<g clip-path="url(#clip0_1_3051)">
<path d="M652.379 -108.747L665.372 -100.922L671.751 -87.161L699.733 -55.9815L713.802 -46.9572L711.467 -34.0361L713.462 -18.507L743.596 15.0709L743.518 21.6365L734.699 29.5508L722.652 33.8672L723.598 46.0088L731.131 54.4033L722.312 62.3176L720.003 73.0501L717.746 79.4056L721.868 99.5219L723.838 117.24L726.962 129.591L724.601 144.701L726.701 151.476L724.496 153.455L724.47 155.643M724.47 155.643L737.384 170.034L752.608 173.692L759.222 167.756L754.917 162.959L755.022 154.205L759.431 150.248L768.145 151.088L782.188 162.301L792.031 159.963L818.487 136.22L816.465 122.879L837.41 104.083L857.147 95.03L864.733 99.0475L878.881 101.506L878.776 110.26L872.214 111.819L875.312 126.359L889.303 141.949L892.427 154.3L891.142 170.609L881.404 164.193L857.153 185.957L843.109 174.744L834.291 182.659L854.739 205.444L863.558 197.529L871.143 201.547L878.807 198.999L885.421 193.063L906.946 217.048L906.789 230.178L915.372 241.961L933.01 226.132L937.315 230.929L948.26 227.602L957 226.253L947.34 213.272L954.007 202.959L962.773 199.422L968.285 194.475L979.125 199.902L999.573 222.687L1017.21 206.859L1011.83 200.863L1000.96 197.624L979.439 173.64L977.391 162.488L977.495 153.734L984.162 143.421L996.235 136.916L1002.74 139.735L1015.82 140.994L1025.61 143.033L1033.22 144.862L1045.19 147.111L1052.77 151.129L1065.84 152.388L1074.45 161.982L1089.68 165.64L1095.06 171.636L1107.05 171.696L1110.28 175.294L1129.86 179.372L1137.58 172.447M724.47 155.643L718.775 175.909L707.83 179.236L703.525 174.439L693.761 170.212L686.123 170.571L654.155 199.26M1108.61 -232.394L1098.92 -243.187L1085.93 -251.012L1059.78 -253.532L1053.17 -247.596L1036.74 -241.511L1020.36 -239.802L1003.93 -233.717L991.936 -233.778L978.916 -239.414L961.514 -243.282L947.393 -247.93L933.167 -243.823L911.277 -237.168L908.048 -240.766L892.746 -237.859L875.213 -230.784L841.851 -267.96L826.601 -269.429L814.762 -282.621L819.25 -293.143L820.561 -311.64L816.335 -323.003L802.161 -323.273L789.116 -326.721L773.119 -322.37L763.945 -319.287L746.543 -323.155L727.96 -319.468L713.812 -321.927L697.277 -307.088L694.994 -298.544L698.092 -284.004L709.931 -270.813L714.157 -259.45L675.575 -224.826L673.188 -207.528L683.872 -188.97L689.253 -182.974L670.513 -166.156L667.995 -137.916L662.483 -132.97L656.841 -117.081L641.408 -103.231L626.106 -100.324L616.342 -104.551L604.504 -117.742L613.322 -125.657L610.094 -129.254L600.277 -129.105L593.82 -136.3L580.827 -144.125L571.036 -146.164L561.35 -156.957L555.995 -165.141L556.984 -177.345L518.059 -220.719L508.642 -217.907L497.619 -208.014L484.884 -203.733L470.4 -211.732L461.581 -203.818L453.76 -188.139L454.706 -175.998L454.497 -158.49L453.212 -142.181L458.488 -127.431L464.946 -120.236L469.094 -102.308L476.627 -93.9136L494.003 -87.8572L509.175 -79.8221L518.861 -69.0292L525.396 -68.3995L535.135 -61.9835L538.363 -58.3858L529.623 -57.0371L520.909 -57.8769L501.223 -53.2007L484.924 -58.0582L476.235 -61.0863L463.295 -73.2884L454.685 -82.8821L443.818 -86.1202L436.285 -94.5146L435.339 -106.656L423.37 -108.905L413.449 -100.002L410.09 -92.6569L407.702 -75.359L406.522 -67.8042L410.748 -56.442L406.261 -45.9194L409.936 -34.0625L408.021 -10.6937L408.993 -0.740568L412.117 11.6111L411.934 26.9305L415.084 37.0935L416.004 51.4237L416.976 61.3768L420.126 71.5399L431.964 84.7312L448.186 96.154L460.129 100.591L476.429 105.449L490.498 114.473L505.695 120.319L520.919 123.977L535.145 119.871L546.168 109.978L549.58 98.2563L557.296 91.3314L564.83 99.7259L578.058 87.8545L587.744 98.6474L581.208 98.0177L571.287 106.921L579.897 116.515L573.335 118.074L562.312 127.966L570.292 144.62M1108.61 -232.394L1128.45 -250.201L1155.72 -250.86L1188.37 -245.522L1201.44 -244.263L1224.59 -265.037L1233.57 -286.083L1247.74 -285.812L1265.19 -286.321L1283.67 -281.254L1302.1 -271.81L1315.17 -270.55M1108.61 -232.394L1108.58 -230.206L1111.65 -213.477L1124.57 -199.087M1315.17 -270.55L1315.33 -283.681M1315.17 -270.55L1315.2 -272.739M1315.33 -283.681L1295.96 -305.267L1291.73 -316.629L1307.16 -330.479L1296.4 -342.471L1301.91 -347.418L1305.38 -363.516L1303.43 -383.423L1305.79 -398.532L1317.76 -396.283L1334.3 -411.122L1327.84 -418.318L1339.97 -429.2L1350.83 -425.962L1362.85 -428.09L1346.71 -446.078L1356.63 -454.981L1362.01 -448.985L1371.93 -457.889L1361.17 -469.881L1375.5 -482.741L1386.26 -470.749L1392.97 -476.768L1399.43 -469.573L1413.37 -473.428L1426.29 -459.038L1437.01 -466.49L1438.98 -481.256L1431.45 -489.651L1438.68 -496.14L1428.43 -517.255L1434.03 -535.265L1420.04 -550.855L1416.76 -573.898L1436.27 -583.677L1453.78 -581.137L1460.02 -574.187L1481.03 -577.444L1488.26 -583.933L1517.32 -551.554L1525.75 -559.125L1555.89 -525.547L1569.19 -517.999L1577.8 -508.405L1582.79 -495.567L1587.1 -490.77L1602.55 -480.823L1605.78 -477.225L1595.88 -464.012L1597.26 -447.929L1592.61 -426.439L1601.22 -416.845L1601.4 -399.681L1605.87 -377.72L1606.18 -362.836L1600.84 -349.387L1603.55 -336.667L1612.85 -319.032L1609.8 -305.465L1602.57 -298.976L1627.32 -271.394L1646.39 -264.692L1675.66 -256.32L1692.71 -254.297L1705.19 -252.509L1720.26 -235.72L1716 -221.072L1716.17 -203.908L1721.16 -191.069L1730.85 -180.276L1726.03 -175.95L1727.41 -159.868L1718.97 -152.297L1701.28 -142.917L1688.68 -133.771L1679.97 -134.611L1675.54 -132.808L1662.65 -144.75L1657.28 -139.93L1651.86 -139.804L1644.38 -148.14L1633.11 -138.03L1615.58 -130.956L1592.98 -156.139L1585.88 -145.44L1578.6 -138.901L1568.73 -134.375L1559.91 -126.461L1566.24 -108.323L1577 -96.3309L1539.52 -62.6956L1523.12 -58.7989L1517.73 -64.795L1507.97 -69.0224L1493.98 -84.6121L1508.31 -97.4727L1488.68 -97.1737L1488.78 -105.928L1484.86 -122.859M1315.33 -283.681L1315.2 -272.739M1431.04 -19.4695L1432.2 -24.8357L1430.12 -33.7996L1436.68 -35.3583L1448.73 -39.6748L1448.81 -46.2403L1449.99 -53.7951L1455.48 -56.5529L1464.24 -60.0902L1466.5 -66.4457L1466.68 -81.7651L1471.14 -90.0992L1481.06 -99.0026L1484.63 -123.855L1484.86 -122.859M1431.04 -19.4695L1434.27 -15.8718L1451.7 -14.1923L1450.54 -8.82613L1444.95 2.6857L1444.82 13.6282L1443.56 27.7483L1444.51 39.8901L1462.81 60.2766L1464.91 67.052L1461.49 78.7738L1462.49 86.5385L1459.05 100.449L1469.66 125.572L1471.68 138.913L1471.55 149.855L1468.22 155.011L1455.15 153.752L1444.28 150.514L1436.64 150.873L1423.57 149.613L1414.83 150.962L1407.11 157.887L1398.35 161.424L1389.61 162.773L1379.69 171.676L1372.02 174.224L1356.77 172.755L1344.65 183.637M1431.04 -19.4695L1430.99 -15.0925M1344.65 183.637L1347.72 200.365L1353.02 212.927L1361.63 222.521L1364.75 234.872L1363.44 253.37L1368.67 272.496L1369.56 289.015L1370.53 298.968L1373.66 311.32L1377.91 320.494L1383.21 333.055L1396.13 347.446L1392.66 363.544L1412.04 385.13L1409.75 393.674L1400.93 401.588L1423.53 426.772L1420.12 438.494L1427.76 438.134L1431.07 435.166L1441.83 447.159L1442.83 454.923L1450.9 463.917M1344.65 183.637L1340.32 181.029L1337.17 170.865L1328.56 161.272L1323.25 148.71L1318.95 143.913L1315.8 133.75L1315.98 118.431L1310.63 110.246L1307.55 93.5178L1309.84 84.9738L1320.78 81.6465L1318.71 72.6825L1317.76 60.5409L1316.79 50.5878L1318 40.8445L1325.79 27.3541L1318.31 14.5827L1305.08 26.454L1295.27 26.6036L1284.5 14.6114L1284.63 3.66898L1300.01 -5.80387L1303.32 -8.77172L1314.27 -12.099L1319.78 -17.0454L1318.81 -26.9985L1315.66 -37.1616M1617.13 744.5L1602.95 744.229L1598.65 739.432L1596.44 741.411L1574.92 717.427L1568.41 714.608L1562 703.036L1557.75 693.862L1562.24 683.34L1556.86 677.344L1544.84 679.472L1539.46 673.476L1537.49 655.758L1532.11 649.762L1525.73 636.001L1518.25 623.23L1513.89 622.81L1506.28 620.981L1500.97 608.419L1509.79 600.505L1508.82 590.552L1500.11 589.712L1491.44 584.495L1481.76 573.702L1483.96 571.724L1479.76 558.173L1482.02 551.818L1476.64 545.822L1471.39 528.883L1475.88 518.361L1483.59 511.436L1479.29 506.639L1474.04 489.7L1473.04 481.936L1467.66 475.94L1458.97 472.911L1450.9 463.917M1617.13 744.5L1629.24 738.037L1640.26 728.145L1640.84 715.488L1648.15 703.669M1617.13 744.5L1623.26 746.899L1621.6 753.48L1619.1 762.217L1609.25 764.555M1648.15 703.669L1656.28 701.638L1669.5 689.766L1679.96 688.111L1684.37 684.154L1696.48 677.691L1701.82 683.645L1710.51 686.673L1722.43 693.299L1737.5 710.088L1724.27 721.959L1725.27 729.724L1714.29 735.24L1697.76 750.079L1691.2 751.637M1648.15 703.669L1649.94 719.462L1663.92 735.043L1673.03 737.629L1686.12 749.695L1691.2 751.637M1691.2 751.637L1683.43 762.939L1683.27 776.07L1678.86 780.027L1701.46 805.211L1702.38 819.541M1702.38 819.541L1726.06 845.923M1702.38 819.541L1713.15 831.533M1726.06 845.923L1740.21 848.382L1747.74 856.777L1751.94 870.328L1806.83 931.487L1819.85 937.124L1831.69 950.315M1726.06 845.923L1713.15 831.533M1831.69 950.315L1865.86 919.648L1849.71 901.66L1853.13 889.938L1869.56 883.853L1873.78 895.215L1882.39 904.809L1892.16 909.036L1898.61 916.231L1914.81 929.843L1928.98 930.113L1937.8 922.199L1943.18 928.195L1961.71 928.885L1966.12 924.928L1973.66 933.322L1979.17 928.376L1996.54 934.432L2004.16 936.261L2012.77 945.855L2027.94 953.89L2032.29 954.31L2044.19 963.125L2057.26 964.384L2073.56 969.241L2086.78 957.37L2096.52 963.786L2107.23 980.155L2106.03 989.898L2113.56 998.293L2116.71 1008.46L2123.11 1020.03L2134.01 1021.08L2143.75 1027.49L2154.64 1028.54L2161.15 1031.36L2165.51 1031.78L2182.72 1050.97L2182.67 1055.35L2186.98 1060.14L2186.92 1064.52L2177.06 1069.05L2175.9 1074.41L2176.82 1088.74L2174.56 1095.1L2170.1 1103.43L2165.69 1107.39L2155.85 1109.73L2151.47 1111.5L2163.38 1118.12L2165.51 1122.71L2165.41 1131.46L2167.51 1138.24L2161.97 1145.37L2169.5 1153.77L2174.91 1157.57L2176.96 1168.73L2173.6 1176.07L2158.16 1189.92L2145.12 1186.47L2138.61 1183.66L2126.64 1181.41L2117.9 1182.76L2110.16 1191.87L2106.8 1199.21L2107.74 1211.36L2096.72 1221.25L2092.42 1216.45L2092.55 1205.51L2090.45 1198.73L2089.45 1190.97L2086.27 1182.99L2074.38 1174.18L2065.77 1164.59L2052.78 1156.76L2017.92 1153.4L2001.6 1150.73L1986.42 1142.7L1972.3 1138.05L1963.54 1141.59L1954.8 1142.94L1950.34 1151.27L1944.75 1162.78L1942.46 1171.33L1929.36 1172.26L1920.68 1169.23L1912.96 1176.15L1906.45 1173.33L1897.74 1172.49L1889 1173.84L1884.67 1171.23L1878.96 1169.86M1831.69 950.315L1846.88 956.162L1858.72 969.353L1869.59 972.591L1881.43 985.783L1886.7 1000.53L1916.84 1034.11L1921.19 1034.53L1932.01 1042.15L1944.06 1037.83L1952.77 1038.67L1962.64 1034.14L1983.3 1039.42L1991.91 1049.01L2007.18 1048.29L2014.71 1056.69L2020.17 1056.12L2035.29 1068.53L2043.98 1071.56L2053.67 1082.35L2063.41 1088.77L2073.25 1086.43L2088.32 1103.22L2090.39 1112.18L2082.73 1114.73L2070.68 1119.05L2061.86 1126.96L2056.27 1138.47L2048.55 1145.4L2039.94 1135.81L2028.05 1126.99L2022.62 1125.37L2016.08 1124.74L2009.57 1121.92L1997.55 1124.05M1736.29 1176.66L1741.67 1182.65L1749.18 1193.23L1756.71 1201.63L1758.81 1208.4L1770.65 1221.6L1781.59 1218.27L1788.21 1212.33L1800.23 1210.2L1812.3 1203.7L1821.04 1202.35L1828.68 1201.99L1835.22 1202.62L1841.78 1201.06L1851.6 1200.91L1862.57 1195.4L1864.77 1193.42L1863.8 1183.47L1863.88 1176.9L1877.05 1169.41L1878.96 1169.86M1736.29 1176.66L1730.83 1177.22L1713.19 1193.05L1705.42 1204.35L1687.79 1220.18L1682.33 1220.75L1673.66 1215.54L1663.85 1215.69L1657.29 1217.24L1640.75 1232.08L1636.29 1240.42L1626.37 1249.32L1607.86 1246.44L1600.2 1248.99L1598.13 1240.03L1596.03 1233.25L1591.72 1228.45L1587.34 1230.22L1584.11 1226.63L1596.23 1215.74L1606.18 1204.65L1605.11 1203.45L1617.23 1192.57L1620.62 1183.04L1625.1 1172.51L1630.67 1163.19L1647.2 1148.35L1648.36 1142.99L1656.15 1129.49L1657.31 1124.13M1736.29 1176.66L1734.19 1169.88L1738.6 1165.92L1722.45 1147.93L1738.99 1133.1M1657.31 1124.13L1649.77 1115.73M1657.31 1124.13L1656.23 1122.93M1649.77 1115.73L1642.16 1113.91L1633.42 1115.25L1624.6 1123.17L1620.3 1118.37L1610.4 1125.09L1600.48 1133.99L1587.57 1119.6L1588.72 1114.23L1589.95 1102.3L1588.9 1098.91L1595.54 1090.79L1595.7 1077.66L1603.44 1068.54L1615.57 1057.66L1623.21 1057.3L1636.25 1060.75L1642.76 1063.57L1653.63 1066.81L1659.04 1070.62L1675.31 1077.66L1678.62 1074.69L1686.26 1074.33L1696.02 1078.56L1706.96 1075.23L1715.73 1071.7L1722.35 1065.76L1727.8 1065.19L1733.19 1071.19L1739.67 1076.2L1742.98 1073.23L1740.9 1064.26L1740.31 1063.11M1649.77 1115.73L1656.23 1122.93M1671.41 855.995L1669.08 868.916L1665.72 876.26L1656.9 884.174L1654.64 890.53L1657.18 896.91M1671.41 855.995L1667.11 851.198M1671.41 855.995L1670.34 854.795M1667.11 851.198L1655.03 857.703L1652.88 855.304L1648.63 846.131L1646.61 832.79L1645.66 820.648M1667.11 851.198L1670.34 854.795M1634.89 793.119L1623.24 780.145L1601.46 778.046L1586.25 776.619L1580.74 781.565L1581.62 795.853L1583.72 802.628L1578.1 816.328L1577.92 831.648L1586.55 839.053L1587.5 851.195L1586.27 863.126L1580.78 865.884L1570.02 853.892L1557.05 843.879L1546.19 840.641L1541.78 844.598L1514.61 836.502L1505.79 844.416L1502.47 851.804L1502.3 862.704L1504.4 869.479L1505.4 877.244L1520.47 894.033L1508.34 904.915L1504.98 912.259L1500.57 916.217L1490.78 914.178L1482.09 911.149L1476.58 916.096L1472.09 926.618L1472.04 930.995L1474.12 939.959L1464.19 948.863L1463.93 970.747L1448.61 975.843L1440.89 982.768L1437.48 994.49L1427.53 1005.58L1419.81 1012.51L1414.2 1026.21L1409.79 1030.16L1400.05 1023.75L1399.87 1039.07L1381.13 1055.89L1378 1043.53L1364.01 1027.94L1378.34 1015.08L1358.63 1021.95L1350.02 1012.35L1349.08 1000.21L1352.55 986.345L1360.27 979.42L1372.23 979.438L1369.1 967.087L1371.38 958.543L1375.87 948.02L1371.49 949.789L1368.16 954.945L1365.85 965.677L1362.51 970.834L1358.1 974.791L1349.36 976.14L1339.55 976.289L1326.53 970.652L1314.59 966.215M1314.59 966.215L1304.85 959.799M1314.59 966.215L1310.41 963.465M1304.85 959.799L1295.13 951.195L1282.12 945.558L1273.4 944.718L1268.99 948.676L1257.02 946.427L1242.69 959.287L1239.31 968.82L1232.62 981.322L1220.57 985.638L1212.98 981.621L1204.16 989.535L1188.99 981.5L1179.18 981.649L1166.05 984.767L1159.52 984.137L1160.67 978.771L1157.47 972.985L1158.62 967.618L1157.57 964.231L1149.8 975.533L1146.5 978.5L1140.04 971.305L1131.38 966.088L1123.87 955.505L1119.57 950.708L1116.44 938.357L1107.83 928.763L1099.12 927.923L1089.3 928.073L1083.79 933.019L1078.33 933.589L1067.36 939.105L1054.29 937.845L1041.19 938.774M1304.85 959.799L1310.41 963.465M1041.19 938.774L1030.3 937.724L1013.92 939.432L998.643 940.151L972.5 937.632L960.558 933.195L951.843 932.355L947.539 927.558L936.646 926.508L922.524 921.861L913.784 923.21L899.61 922.939L890.922 919.911L881.079 922.249L863.651 920.57L854.963 917.542L841.944 911.905L820.289 898.863L806.168 894.216L778.609 918.948L773.15 919.517L761.207 915.08L750.367 909.653L738.45 903.027L706.164 867.051L694.038 877.933L685.297 879.282L679.786 884.228L665.638 881.769L659.129 878.951L655.9 875.353L657.081 867.799L647.395 857.006L635.452 852.568L622.355 853.497L605.976 855.205L602.669 858.173L588.469 860.091L560.911 884.823L554.166 901.701L545.348 909.615L537.684 912.163L527.71 925.444L518.735 946.489L512.121 952.425M1041.19 938.774L1030.45 924.593L1017.38 923.334L1009.85 914.939L998.826 924.832L981.606 905.644L973.023 893.862L974.23 884.119L974.334 875.365L976.617 866.821L964.779 853.63L956.038 854.978L941.708 867.839L933.099 858.245L913.256 876.052L899.266 860.463L895.959 863.431L878.713 846.432L883.122 842.474L878.818 837.678L885.432 831.742L881.127 826.945L874.565 828.504L852.518 848.289L847.189 837.916L834.144 834.468L828.763 828.472L814.668 821.636L811.361 824.604L799.496 813.601M512.121 952.425L500.152 950.176L492.671 937.404L482.854 937.554L470.859 937.493L447.182 911.111L432.982 913.029L422.168 905.414L409.254 891.023L399.489 886.796L387.442 891.112L377.625 891.262L371.142 886.255L365.761 880.259L364.789 870.306M512.121 952.425L490.074 972.21L475.822 978.505L464.799 988.398L454.956 990.736L442.883 997.241L436.347 996.611L426.53 996.761L418.919 994.932L403.616 997.839L397.159 990.644L389.443 997.569L390.441 1005.33L371.701 1022.15L364.089 1020.32L365.035 1032.46L318.736 1074.01L314.379 1073.59L297.16 1054.41L289.548 1052.58L281.91 1052.94L268.682 1064.81L260.02 1059.59L243.642 1061.3L233.799 1063.64L228.209 1075.15L232.462 1084.32L246.452 1099.91L240.888 1109.24L237.738 1099.07L215.138 1073.89L201.069 1064.87L194.533 1064.24L183.693 1058.81L178.311 1052.81L160.857 1053.32L144.322 1068.16L133.403 1069.3L118.179 1065.64L104.058 1060.99L96.4721 1056.98L87.784 1053.95L74.8695 1039.56L75.0785 1022.05M75.0785 1022.05L74.0545 1016.47L74.1589 1007.72L75.3396 1000.17L77.6488 989.433L74.4201 985.835L82.2149 972.345L83.3695 966.979L85.7571 949.681L85.8355 943.115L96.8587 933.223L101.347 922.7L104.653 919.732L107.882 923.33L121.189 904.893L125.598 900.936L125.702 892.182L133.497 878.692L138.063 861.604L141.37 858.636L149.191 842.957L147.117 833.993L153.809 821.492L160.423 815.556L167.273 789.924L170.658 780.391L176.274 766.691L173.045 763.093L176.535 744.806L181.023 734.283L185.563 719.383L189.001 705.473L192.386 695.94L199.052 685.627M75.0785 1022.05L90.3544 1021.33L99.173 1013.42L102.532 1006.07L108.044 1001.13L112.532 990.603L125.655 987.486L133.346 982.75L144.186 988.176L155.157 982.66L147.624 974.266L155.392 962.964L180.746 940.211L186.31 930.887L183.081 927.29L173.317 923.062L171.243 914.099L174.654 902.377L183.473 894.463L190.166 881.961L200.086 873.058L203.472 863.525L198.143 853.152L204.809 842.839L198.352 835.644L202.866 822.933L215.911 826.381L220.399 815.858M199.052 685.627L203.54 675.105L200.311 671.507L217.949 655.679L225.717 644.377L234.536 636.463L239.024 625.94L242.331 622.972L241.411 608.642L257.946 593.803L253.694 584.629L263.615 575.726L264.796 568.171L265.95 562.805L267.157 553.061L265.057 546.286L266.09 542.896M199.052 685.627L202.15 700.167L205.274 712.519L201.863 724.241L202.809 736.382L201.523 752.691L205.724 766.242L204.517 775.985L209.819 788.547L212.944 800.898L219.401 808.094L220.399 815.858M290.802 490.706L283.086 497.63L287.391 502.427L284.084 505.395L278.494 516.907L277.313 524.462L269.597 531.387L266.09 542.896M290.802 490.706L294.214 478.984L295.499 462.675L308.727 450.804L308.832 442.05L314.422 430.538L326.547 419.656L332.137 408.144L338.751 402.208L348.751 386.739L355.365 380.804L359.853 370.281L367.569 363.356L372.083 350.645L378.697 344.71L382.108 332.988L388.722 327.052L395.467 310.174L409.797 297.314L409.928 286.371L452.919 247.789L455.202 239.245L459.742 224.346L477.379 208.517M290.802 490.706L295.133 493.314L304.95 493.164L321.093 511.152M477.379 208.517L495.989 202.642L514.65 192.39L527.747 191.461L530.083 178.54L536.775 166.039L536.906 155.097L553.441 140.257L563.231 142.296L570.292 144.62M477.379 208.517L485.989 218.111L495.884 211.396L504.546 216.613L506.568 229.954L518.406 243.145L536.043 227.317L539.272 230.914L548.091 223L551.241 233.163L559.851 242.757L568.539 245.785L590.586 226L582.107 205.464L586.464 205.883L592.921 213.079L612.502 217.157L622.318 217.007L633.185 220.245M570.292 144.62L577.352 146.944M220.399 815.858L229.009 825.452L228.826 840.771L235.283 847.967L247.304 845.838L258.145 851.265L275.364 870.453L285.181 870.303L294.867 881.096L301.455 877.349L308.069 871.413L300.613 856.453L306.125 851.507L314.865 850.158L326.991 839.276L333.448 846.471L344.393 843.144L350.929 843.774L357.386 850.969L362.741 859.154L364.789 870.306M364.789 870.306L375.682 871.356L385.42 877.772L394.239 869.857L410.591 870.338L413.898 867.37L404.212 856.577L413.031 848.663L416.416 839.129L408.883 830.735L407.885 822.97L410.142 816.615L414.603 808.281L410.298 803.484L407.096 797.698L400.613 792.691L381.084 784.236L380.086 776.471L379.114 766.518L374.757 766.098L362.762 766.038L356.305 758.843L358.562 752.487L365.176 746.551L366.357 738.997L371.454 736.587L378.942 738.527L382.657 743.854L379.779 748.287L378.195 752.188L385.728 760.583L390.033 765.379L403.261 753.508L399.009 744.334L391.475 735.94L380.661 728.325L372.677 731.546M371.894 731.862L372.677 731.546M629.057 566.026L625.724 571.182L605.882 588.989L601.499 590.758L589.426 597.263L590.371 609.405L583.836 608.775L580.529 611.743L568.586 607.305L561.998 611.052L557.562 617.198L538.823 634.016L525.621 643.698L521.316 638.902L513.6 645.827L517.904 650.623L522.131 661.986L512.21 670.889L502.341 675.416L494.755 671.398L482.917 658.207L478.56 657.787L462.025 672.626L451.106 673.765L443.39 680.69L442.183 690.433L436.619 699.756L426.855 695.529L413.94 681.138L408.402 688.273L407.221 695.828L399.583 696.188L395.226 695.768L388.612 701.703L387.458 707.07L384.072 716.603L386.225 719.001L379.611 724.937L372.677 731.546M629.057 566.026L622.6 558.831L624.831 554.664L624.883 550.287L618.374 547.468L605.276 548.397L594.41 545.159L587.952 537.964L580.288 540.512L570.367 549.415L564.986 543.419L552.939 547.736L538.948 532.146L525.798 537.452L516.98 545.366L511.599 539.37L504.117 526.599L497.608 523.78L493.355 514.606L489.129 503.244L485.9 499.647L474.955 502.974L472.672 511.518L460.546 522.4L442.251 502.013L432.408 504.351L427.027 498.355L426.029 490.59L416.265 486.363L406.396 490.89L395.582 483.275L387.865 490.199L383.613 481.025L377.156 473.83L369.57 469.813L361.853 476.738L359.518 489.659L365.975 496.854L352.747 508.725L344.033 507.886L321.093 511.152M629.057 566.026L637.85 560.3L645.436 564.318L654.15 565.158L661.788 564.798L671.579 566.837L674.885 563.869L676.118 551.937L677.299 544.383L696.984 539.707L701.342 540.127L705.594 549.3L708.797 555.086L717.485 558.115L722.996 553.168L732.839 550.83L740.503 548.282L752.629 537.4L759.034 548.973L771.949 563.363L770.742 573.106L767.356 582.64L773.814 589.835L778.171 590.255L786.78 599.849L784.55 604.016L789.878 614.389L793.055 622.363L800.588 630.758L806.1 625.811L811.481 631.807L810.327 637.174L809.146 644.728L804.684 653.062L801.43 651.653L785.997 665.503L782.638 672.848L773.819 680.762L774.79 690.715L781.248 697.911M321.093 511.152L316.658 517.298L283.587 546.976L281.409 546.766L276.002 542.959L266.09 542.896M781.248 697.911L783.886 705.286M781.248 697.911L783.593 704.466M799.496 813.601L795.218 806.616L777.998 787.429L778.077 780.863L782.564 770.341L785.95 760.807L780.569 754.811L785.082 742.1L791.696 736.164L791.749 731.787L789.701 720.635L786.524 712.661L783.886 705.286M799.496 813.601L814.929 799.751L826.95 797.623L842.148 803.47L857.424 802.751L873.776 803.231L884.695 802.092L911.151 778.35L917.87 763.66L923.381 758.714L925.769 741.416L929.154 731.883L934.666 726.936L947.711 730.384L954.038 748.522L957.136 763.062L962.36 782.189L976.508 784.648L984.302 771.158L968.159 753.169L1015.56 710.631L1019.86 715.427L1037.32 714.918L1064.22 744.899C1062.8 742.57 1061.46 738.717 1067.53 741.931C1078.87 742.147 1088.27 740.643 1091.55 739.863L1100.31 736.326L1111.23 735.187L1121.08 732.849L1137.61 718.01L1145.2 722.028L1151.73 722.657L1170.26 723.348L1177.22 727.93M633.185 220.245L636.414 223.843M633.185 220.245L622.423 208.253L617.172 191.315L629.246 184.81L634.679 186.429L648.774 193.264L654.155 199.26M783.593 704.466L802.088 687.868L810.776 690.896L822.901 680.014L832.77 675.488L837.075 680.285L834.792 688.829L844.478 699.622L857.706 687.75L857.811 678.996L859.043 667.065L857.022 653.724L863.636 647.788L874.502 651.026L880.014 646.08L873.557 638.885L881.273 631.96L890.959 642.753L900.88 633.849L896.706 618.11L908.727 615.982L910.932 614.003L915.367 607.858L919.907 592.958L943.871 595.268L945.474 590.754M783.593 704.466L783.886 705.286M1195.9 585.594L1192.59 588.561L1182.85 582.146L1151.64 547.368L1151.77 536.426L1141.01 524.434L1124.53 534.896L1116.81 541.821L1129.73 556.211L1130.73 563.976L1131.75 569.552L1133.88 574.139L1134.85 584.092L1128.23 590.028L1118.44 587.989L1096.66 585.89L1090.2 578.694L1076.97 590.566L1068.31 585.349L1058.52 583.31L1050.86 585.858L1040.09 573.866L1033.58 571.048L1023.74 573.386L1019.33 577.343L1007.31 579.471L1001.93 573.475L994.291 573.834L983.268 583.727L974.554 582.887L958.019 597.726L946.102 591.1L945.474 590.754M1195.9 585.594L1216.35 608.379L1233.83 605.681L1241.47 605.322M1195.9 585.594L1238.89 547.012L1235.77 534.66L1224.98 524.857L1219.6 518.861L1219.73 507.918L1218.76 497.965L1212.35 486.393L1208.15 472.842L1207.2 460.7L1205.13 451.736L1192.22 437.346L1175.86 436.866L1167.15 436.026L1158.54 426.432L1160.8 420.077L1171.77 414.561L1158.85 400.17L1148.01 394.744L1141.56 387.548L1154.78 375.677L1138.64 357.689L1133.18 358.258L1124.49 355.23L1112.5 355.17L1098.51 339.58L1097.59 325.25L1083.6 309.66L1081.5 302.885L1093.62 292.003L1088.24 286.007L1077.37 282.768L1067.61 278.541L1054.38 290.412L1050.92 306.511L1044.3 312.447L1038.71 323.959L1041.94 327.556L1037.4 342.456L1027.48 351.359L1022.1 345.363C1017.74 344.943 1009.06 341.477 1009.19 330.973C1009.31 320.468 1007.96 311.866 1007.27 308.878L1005.17 302.102L1021.7 287.263L1022.88 279.709L1029.5 273.773L1032.73 277.371L1042.54 277.221L1052.46 268.318L1051.47 260.553L1059.18 253.628L1067.9 254.468L1076.51 264.061L1087.45 260.734L1093.91 267.929L1104.85 264.602L1113.59 263.253L1130 259.357L1138.82 251.442L1146.4 255.46L1159.63 243.589L1162.1 219.725L1153.54 205.755L1148.16 199.758L1140.76 180.422L1137.58 172.447M1241.47 605.322L1246.85 611.318L1246.74 620.072L1239.03 626.997L1237.79 638.928L1235.38 658.415L1230.97 662.372L1237.43 669.567L1227.51 678.471L1221.94 687.794L1219.61 700.715L1221.63 714.056L1225.93 718.853L1214.91 728.745L1204.1 721.13L1198.66 719.511L1189.97 716.483L1177.22 727.93M1241.47 605.322L1251.33 600.795L1260.07 599.446L1262.36 590.903L1265.66 587.935L1271.05 593.931L1282.02 588.415L1283.22 578.672L1281.18 567.519L1287.84 557.207L1293.35 552.26L1306.45 551.331L1316.24 553.37L1327.08 558.797L1344.46 564.853L1354.25 566.892L1365.14 567.942L1370.52 573.938L1374.77 583.112L1387.74 593.125L1397.53 595.165L1397.72 579.845L1391.28 570.461L1389.26 557.121L1389.39 546.178L1392.73 541.022L1394.98 534.666L1401.44 541.861L1406.95 536.915L1408.16 527.172L1405.01 517.009L1420.26 518.478L1432.1 531.67L1443.12 521.777L1441.12 506.248L1440.18 494.106L1443.59 482.384L1447.03 468.474L1450.9 463.917M1137.58 172.447L1130.12 157.487L1124.74 151.491L1108.44 146.634L1093.25 140.787L1091.17 131.823L1105.37 129.905L1119.52 132.364L1121.83 121.631L1129.54 114.707L1129.75 97.1987L1139.67 88.2952L1140.93 74.175M1302.4 890.547L1301.43 880.594L1297.2 869.231L1291.87 858.858L1291.98 850.104L1286.68 837.543L1279.01 840.091L1261.38 855.919L1250.46 857.058L1241.92 840.899L1240.93 833.134L1226.94 817.545C1225.21 815.626 1221.86 816.325 1220.4 816.915L1213.94 809.719L1213 797.578L1224.97 799.827L1234.89 790.923L1226.28 781.329L1207.93 765.32L1191.66 758.274L1185.28 744.513L1180 729.763L1177.22 727.93M1302.4 890.547L1305.5 905.087L1308.65 915.25L1310.72 924.214L1308.44 932.758L1307.26 940.313L1313.72 947.508L1313.67 951.885L1311.41 958.24L1311.36 962.617L1310.41 963.465M1302.4 890.547L1311.12 891.387L1318.83 884.462L1321.19 869.352L1321.27 862.787L1319.2 853.823L1320.35 848.457L1320.41 844.08L1323.71 841.112L1329.17 840.542L1332.48 837.575L1320.64 824.383L1317.49 814.22L1317.54 809.843L1314.39 799.68L1332.03 783.852L1341.85 783.702L1344 786.101L1345 793.865L1353.61 803.459L1359.07 802.89L1369.96 803.939L1380.72 815.931L1388.38 813.383L1398.2 813.234L1412.32 817.881L1411.12 827.624L1414.27 837.788L1419.67 841.595L1432.9 829.724L1442.59 840.517L1450.25 837.969L1453.48 841.566L1463.3 841.417L1467.71 837.46L1473.14 839.079L1479.75 833.143L1488.49 831.794L1492.8 836.591L1509.33 821.752L1513.87 806.853L1527.1 794.981M869.512 1982.68L869.049 1982.76M869.049 1982.76L857.491 1984.8L848.725 1988.34L840.956 1999.64L833.24 2006.57L837.466 2017.93L833.057 2021.89L837.362 2026.68L843.924 2025.13L847.152 2028.72L858.176 2018.83L858.306 2007.89L864.92 2001.95L864.972 1997.58L867.229 1991.22L869.049 1982.76ZM1124.57 -199.087L1122.2 -183.977L1113.31 -169.498L1104.49 -161.583L1103.28 -151.84L1110.82 -143.446L1116.33 -148.392L1117.27 -136.251L1123.6 -118.113L1137.59 -102.523L1130.98 -96.5874L1124.28 -84.0863L1123.08 -74.343L1113.16 -65.4396L1110.79 -50.3301L1107.36 -36.4199L1105.02 -23.4989L1103.81 -13.7557L1087.28 1.08346L1088.2 15.4136L1103.55 8.1292L1115.47 14.7552L1123.19 7.83019L1122.93 29.715L1130.54 31.5441L1141.48 28.2168L1144.74 29.6259L1140.22 42.337L1124.79 56.1868L1123.53 70.307L1140.93 74.175M1124.57 -199.087L1132.05 -186.315L1138.56 -183.497L1150.39 -170.306L1153.55 -160.143L1158.9 -151.958L1152.21 -139.457L1149.92 -130.913L1158.67 -132.262L1169.51 -126.835L1196.41 -96.8548L1204 -92.8373L1213.81 -92.9868L1221.53 -99.9117L1232.42 -98.8621L1238.88 -91.6668L1250.8 -85.0409L1268.28 -87.7384L1275.84 -81.5324L1282.42 -85.2796L1288.07 -101.168L1295.81 -110.282L1304.52 -109.442M1140.93 74.175L1149.62 77.2032L1153.93 82.0001L1162.64 82.8398L1173.61 77.324L1181.33 70.3991L1189.15 54.7203L1189.28 43.7778L1201.41 32.8958C1203.17 31.3129 1203.63 29.4582 1203.64 28.7287L1204.84 18.9855L1203.87 9.03236C1206.5 8.40889 1211.54 5.75495 1213.74 4.50588L1232.48 -12.3118L1231.48 -20.0765M1231.15 -20.4458L1235.56 -24.4029L1241.4 -28.9799L1247.99 -32.7272L1259.99 -32.6667L1269.85 -37.1932L1277.49 -37.5527L1289.46 -35.3038C1290.92 -35.8933 1294.72 -36.9885 1298.2 -36.6526L1309.09 -35.6029L1314.61 -40.5493L1308.2 -52.1215L1301.74 -59.3168L1301.85 -68.0707L1303.03 -75.6254L1309.7 -85.9381L1308.72 -95.8912L1304.52 -109.442M1304.52 -109.442L1302.5 -122.783L1312.42 -131.686L1315.91 -149.974L1296.54 -171.559L1311.97 -185.409L1315.46 -203.697L1320.98 -208.643L1321.21 -228.339L1315.83 -234.335L1330.16 -247.196L1335.54 -241.2L1350.84 -244.107L1355.33 -254.63L1347.8 -263.024L1333.62 -263.295L1326.09 -271.689L1315.2 -272.739M654.155 199.26L663.841 210.053L673.632 212.092L664.813 220.007L663.528 236.315L672.085 250.286L681.142 268.139L679.358 280.565L685.815 287.76L693.218 307.097L713.666 329.882L721.252 333.9L713.457 347.39L714.402 359.532L722.014 361.361L725.243 364.959L741.438 378.57L755.69 372.275L768.788 371.346L777.554 367.808L792.674 380.22L812.045 401.806L807.059 408.446L792.36 406.482L804.068 430.616L812.678 440.21L825.644 450.223L838.742 449.295L846.879 452.817L855.488 462.411L855.961 468.482L861.342 474.478L875.937 485.196L892.709 496.124L900.295 500.142L907.829 508.536L911.083 509.945L909.85 521.877L915.231 527.873L922.817 531.891L922.214 536.762L930.22 551.228L935.732 546.281L947.57 559.472L945.209 574.582L947.257 585.734L945.474 590.754M1356.41 -253.431L1378.45 -273.216C1379.15 -270.958 1381.42 -266.357 1384.91 -266.021C1388.4 -265.685 1405.59 -262.932 1393.62 -265.181C1397.98 -264.761 1407.35 -263.64 1409.95 -262.512L1419.72 -258.285L1425.2 -261.043L1430.58 -255.047C1431.66 -253.848 1440.32 -248.631 1439.19 -245.453C1438.29 -242.911 1437.98 -234.98 1437.93 -231.333C1440.06 -226.746 1442.16 -219.971 1443.21 -216.583M1443.21 -216.583C1444.26 -213.195 1444.13 -202.253 1445.18 -198.865C1449.46 -191.88 1453.76 -187.083 1455.91 -184.684C1458.07 -182.286 1460.25 -182.076 1462.4 -179.678C1464.55 -177.279 1472.19 -177.639 1473.26 -176.439C1474.13 -175.48 1476.48 -171.383 1477.54 -169.454L1477.52 -167.266C1477.44 -160.7 1475.21 -156.533 1475.18 -154.345C1475.16 -152.156 1471.82 -147 1469.64 -147.21C1468.49 -141.844 1470.62 -137.257 1471.69 -136.057C1472.55 -135.098 1476.37 -132.32 1478.18 -131.051L1485.76 -127.033L1484.86 -122.859M1443.21 -216.583L1447.62 -220.54L1450.14 -248.78L1447.14 -261.248L1438.53 -270.842L1455.91 -275.612L1454.2 -284.901L1451.36 -295.341L1455.23 -309.638L1449.84 -315.634L1457.56 -322.559L1454.46 -337.099L1449.08 -343.095L1455.09 -351.787L1468.35 -363.684L1493.08 -336.124L1514.44 -326.865L1523.95 -323.548L1540.44 -305.175L1547.67 -311.664L1560.84 -316.379L1567.91 -308.505L1576.29 -311.287L1578.7 -313.45L1573.93 -313.912L1581.33 -334.764L1584.92 -335.615L1590.81 -329.053L1597.82 -316.391L1601.24 -302.879L1603.6 -300.254M1484.61 -121.667L1484.86 -122.859M1272.12 595.13L1291.49 616.716L1300.21 617.555L1301.18 627.509L1303.23 638.661L1308.53 651.223L1304.04 661.745L1311.58 670.139L1329.06 667.442L1337.77 668.282L1332.15 681.982L1337.54 687.978L1342.97 689.597L1352.73 693.825L1367.8 710.614L1379.74 715.051L1392.97 703.18L1405.89 717.57L1407.88 733.1L1404.5 742.633L1405.47 752.586L1403.13 765.507L1406.36 769.105L1415.08 769.945L1418.38 766.977L1430.43 762.66L1436.83 774.232L1443.29 781.428C1447.6 786.224 1452.33 785.585 1454.16 784.666L1470.69 769.827L1483.74 773.275L1503.32 777.353L1510.96 776.993L1527.1 794.981M1527.1 794.981L1537.02 786.078L1550.02 793.903L1559.81 795.942L1563.16 788.597L1561.14 775.256L1561.2 770.879L1562.38 763.325L1566.79 759.367L1575.47 762.396L1583.09 764.225L1596.13 767.673L1611.46 762.577M1634.01 792.137L1638.26 801.311L1642.56 806.108L1649.18 800.172L1654.56 806.168L1653.38 813.723L1644.56 821.637M1315.12 -37.7548L1323.35 -41.8981L1327.68 -39.2896L1333.14 -39.8591L1339.8 -50.1716L1346.42 -56.1073L1359.57 -61.4132L1372.66 -62.342L1385.71 -58.8939L1396.52 -51.2788L1404.11 -47.2613L1408.36 -38.0875L1412.59 -26.7252L1421.22 -19.32M1421.22 -19.32L1421.09 -8.37757L1426.48 -2.38147L1430.88 -6.33858L1430.99 -15.0925M1421.22 -19.32L1427.79 -20.8787L1430.99 -15.0925M1670.34 854.795L1677.97 854.436L1682.28 859.233L1694.41 848.351L1703.12 849.19L1709.73 843.255L1710.94 833.512L1713.15 831.533M1656.74 897.305L1657.18 896.91M1740.31 1063.11L1735.57 1053.89L1737.91 1040.97L1726.07 1027.78C1726.44 1027.45 1726.52 1026.51 1723.92 1025.38C1721.31 1024.25 1713.45 1018.89 1709.85 1016.36L1699.09 1004.36L1699.22 993.421L1688.45 981.428L1679.79 976.212L1673.34 969.017L1662.52 961.401L1645.3 942.214L1643.25 931.062L1638.95 926.265L1632.54 914.693L1630.44 907.917L1634.91 899.583L1645.8 900.633L1650.21 896.676L1657.82 898.505L1657.18 896.91M1740.31 1063.11L1744.18 1063.48C1747.81 1064.56 1757.87 1068.09 1769.14 1073.56C1780.42 1079.03 1778.2 1076.26 1775.68 1074.19L1782.29 1068.25L1779.07 1064.65L1781.35 1056.11L1785.84 1045.59L1782.76 1028.86C1782.07 1025.87 1779.83 1018.94 1776.39 1015.1L1785.2 1007.18C1788.11 1007.46 1795.01 1008.35 1799.35 1009.64C1803.7 1010.94 1799.01 1007.78 1796.12 1006.05L1771.37 978.464L1760.5 975.225L1750.66 977.563L1744.2 970.368L1736.57 970.728L1730.11 963.532L1729.14 953.579L1724.94 940.028L1717.4 931.634L1711 920.062L1690.55 897.277C1687.97 894.399 1682.98 891.8 1680.81 890.861L1672.1 890.021L1664.46 890.38L1657.18 896.91M1701.48 1077.99L1701.32 1091.12L1693.48 1108.99M1693.48 1108.99L1683.61 1113.52L1675.89 1120.44L1667.15 1121.79L1656.23 1122.93M1693.48 1108.99L1702.19 1109.83L1717.33 1120.05L1726.08 1118.7L1735.81 1125.12L1738.99 1133.1M1738.99 1133.1L1746.71 1126.17L1760.88 1126.44L1773.01 1115.56L1782.82 1115.41L1799.23 1111.51L1803.58 1111.93M1803.58 1111.93L1816.71 1108.82L1822.22 1103.87L1819.07 1093.71L1830.04 1088.19L1843.08 1091.64L1852.9 1091.49L1858.36 1090.92L1861.51 1101.08C1869.32 1104.46 1885.85 1102.33 1893.14 1100.84L1907.34 1098.93L1919.36 1096.8L1933.48 1101.44L1935.63 1103.84L1944.35 1104.68L1962.85 1107.56L1976.97 1112.21L1992.17 1118.06L1997.55 1124.05M1803.58 1111.93L1815.42 1125.12L1830.7 1124.4L1839.52 1116.49L1847.13 1118.32L1854.66 1126.71L1861.04 1140.47L1865.35 1145.27L1874.03 1148.3L1881.62 1152.32L1885.92 1157.11L1886.95 1162.69L1878.96 1169.86M1878.13 1170.6L1878.96 1169.86M1997.55 1124.05L1979.92 1139.88M1097.8 1678.22L1119.71 1669.37L1132.94 1657.5L1153.68 1656.21L1152.47 1665.96L1126.01 1689.7L1111.79 1693.8L1058.87 1741.29L1055.91 1715.81L1021.73 1746.48L1017.69 1719.79L1035.2 1714.91L1046.22 1705.01L1061.52 1702.11L1082.47 1683.31L1097.8 1678.22ZM980.211 1753.43L985.592 1759.42L978.9 1771.93L971.131 1783.23L960.369 1771.24L980.211 1753.43ZM1006.93 1707.8L1000.31 1713.74L1002.44 1718.32L1005.7 1719.73L1010.1 1715.78L1011.23 1712.6L1006.93 1707.8ZM1118.54 1767.85L1117.38 1773.22L1126.07 1776.25L1129.4 1771.09L1128.38 1765.52L1125.15 1761.92L1118.54 1767.85ZM1208.38 1732.69L1202.87 1737.64L1201.71 1743L1204.94 1746.6L1212.66 1739.68L1210.53 1735.09L1208.38 1732.69ZM911.501 1845.4L900.477 1855.3L901.501 1860.87L907.959 1868.07L914.52 1866.51L923.339 1858.59L911.501 1845.4ZM875.938 1901.13L868.222 1908.06L874.601 1921.82L882.213 1923.65L885.624 1911.93L875.938 1901.13ZM918.172 1926.02L926.834 1931.23L913.606 1943.11L907.148 1935.91L918.172 1926.02ZM892.975 1935.64L901.585 1945.23L882.845 1962.05L878.54 1957.25L876.335 1959.23L871.978 1958.81L863.368 1949.22L865.625 1942.86L875.546 1933.96L884.156 1943.55L892.975 1935.64ZM-128.195 784.457L-138.116 793.36L-131.659 800.556L-124.047 802.385L-120.74 799.417L-121.738 791.652L-128.195 784.457ZM-6.59365 738.114L-2.23658 738.533L-0.0318285 736.555L6.42546 743.75L-0.188567 749.686L-5.62185 748.067L-11.0029 742.071L-6.59365 738.114ZM36.3453 703.909L30.8338 708.855L31.8577 714.431L35.1125 715.84L41.7264 709.905L36.3453 703.909ZM34.2138 608.395L26.4975 615.319L27.5477 618.707L34.031 623.714L39.5687 616.579L37.4685 609.804L34.2138 608.395ZM38.2575 635.076L31.6434 641.012L32.6675 646.588L37.0245 647.008L42.5362 642.062L38.2575 635.076ZM18.6506 633.187L13.1651 635.945L2.24609 637.084L-5.47042 644.009L-0.1154 652.193L4.21549 654.802L20.7507 639.962L19.7268 634.386L18.6506 633.187ZM-22.9248 644.518L-27.3341 648.475L-21.9791 656.659L-18.0536 649.946L-22.9248 644.518ZM-30.7195 658.008L-33.4863 663.795L-28.6716 669.16L-26.4146 662.805L-30.7195 658.008ZM-36.785 617.985L-46.732 629.077L-40.2487 634.084L-32.4802 622.782L-36.785 617.985Z" stroke="white" stroke-width="3.23849"/>
<path d="M784.344 2032.55L774.106 2022.95L771.686 2009.12L753.401 1975.27L742.459 1964.37L748.065 1952.93L750.258 1938.29L730.567 1901.84L732.367 1895.82L742.792 1890.19L755.327 1888.46L757.623 1877.13L752.701 1868.02L763.126 1862.39L768.132 1852.96L771.938 1847.54L773.325 1828.29L776.118 1811.65L776.407 1799.72L782.613 1786.27L782.407 1779.66L785.013 1778.25L785.613 1776.25M785.613 1776.25L777.174 1760.62L763.729 1754.43L755.91 1758.66L758.723 1763.86L756.323 1771.89L751.11 1774.7L743.085 1772.31L732.743 1759.4L722.814 1759.72L691.538 1776.61L689.945 1789.25L665.185 1802.62L644.128 1807.27L638.005 1802.17L625.263 1797.28L627.663 1789.26L634.282 1789.04L635.172 1775.11L626.03 1758.19L626.319 1746.26L631.822 1731.51L639.351 1739.22L668.021 1723.73L678.363 1736.64L688.788 1731.01L675.426 1706.28L665.001 1711.91L658.878 1706.81L650.956 1707.72L643.137 1711.95L629.072 1685.91L632.672 1673.88L627.645 1661.45L606.795 1672.72L603.982 1667.51L592.75 1668.53L584.124 1668.15L589.854 1681.87L580.835 1690.11L571.609 1691.73L565.094 1695.25L556.261 1688.24L542.899 1663.51L522.049 1674.77L525.565 1681.28L534.997 1686.28L549.062 1712.31L548.069 1722.94L545.67 1730.96L536.651 1739.2L523.516 1742.93L518.097 1739.13L506.058 1735.55L497.329 1731.85L490.607 1728.76L479.871 1724.47L473.749 1719.36L461.71 1715.78L456.084 1705.36L442.639 1699.17L439.123 1692.66L427.788 1690.38L425.678 1686.47L408.22 1679.09L399.098 1684.01M785.613 1776.25L796.328 1758.69L807.56 1757.66L810.373 1762.87L818.502 1768.57L825.824 1769.66L863.616 1749.24M320.114 2061.34L326.443 2073.06L336.682 2082.67L360.759 2089.84L368.578 2085.62L385.725 2083.08L401.673 2084.55L418.821 2082.02L430.156 2084.3L440.995 2091.9L456.447 2098.69L468.588 2105.59L483.13 2104.46L505.594 2102.41L507.703 2106.32L522.948 2106.49L541.399 2103.25L563.2 2143.61L577.245 2147.79L584.981 2162.11L577.968 2170.95L571.866 2187.7L572.879 2198.92L586.221 2201.8L597.659 2207.4L613.941 2206.37L623.433 2205.25L638.884 2212.04L657.438 2212.1L670.18 2216.99L689.727 2206.43L694.134 2199.01L695.023 2185.07L687.288 2170.75L686.274 2159.53L731.885 2134.89L738.691 2119.44L733.458 2100.4L729.942 2093.89L752.095 2081.93L761.901 2056.45L768.417 2052.93L777.932 2039.38L796.176 2029.53L811.421 2029.7L819.55 2035.4L827.286 2049.72L816.86 2055.35L818.97 2059.26L828.299 2060.94L832.518 2068.75L842.757 2078.36L851.486 2082.05L857.815 2093.77L860.732 2102.28L856.589 2113.31L882.024 2160.4L891.675 2159.56L904.706 2152.52L917.883 2150.96L929.487 2161L939.912 2155.37L951.434 2142.42L953.73 2131.09L958.529 2115.04L964.032 2100.29L962.915 2085.76L958.696 2077.95L959.482 2060.71L954.559 2051.6L939.708 2042.8L927.463 2032.6L921.134 2020.88L915.114 2019.09L907.585 2011.38L905.476 2007.48L914.101 2007.86L922.127 2010.26L941.984 2009.62L956.132 2017.11L963.558 2021.51L972.597 2035.13L978.223 2045.54L987.655 2050.54L992.578 2059.65L990.282 2070.98L1001.02 2075.27L1012.75 2068.93L1017.85 2062.81L1024.66 2047.36L1027.76 2040.64L1026.75 2029.42L1033.76 2020.58L1033.4 2009.01L1041.35 1987.89L1043.05 1978.57L1043.34 1966.64L1047.54 1952.6L1047.23 1942.68L1050.13 1929.34L1051.82 1920.01L1051.51 1910.09L1043.78 1895.77L1031.43 1882.26L1021.29 1875.96L1007.14 1868.47L996.203 1857.56L983.358 1849.37L969.913 1843.18L955.371 1844.31L942.34 1851.35L936.031 1861.48L926.909 1866.41L921.986 1857.3L906.348 1865.74L900.018 1854.03L906.038 1855.82L917.766 1849.48L912.14 1839.07L918.759 1838.86L931.791 1831.82L928.616 1815.03M320.114 2061.34L296.657 2074.02L270.677 2069.55L241.18 2058.58L229.142 2054.99L201.775 2069.77L187.751 2087.44L174.409 2084.56L157.758 2081.78L141.603 2073.69L126.648 2061.59L114.61 2058M320.114 2061.34L320.714 2059.34L322.203 2043.4L313.764 2027.78M114.61 2058L111.01 2070.04M114.61 2058L114.01 2060.01M111.01 2070.04L123.669 2093.47L124.682 2104.69L106.438 2114.55L113.47 2127.57L106.955 2131.09L99.4456 2145.23L96.0528 2163.88L89.847 2177.33L79.1117 2173.04L59.5642 2183.6L63.7838 2191.41L49.4489 2199.15L40.0168 2194.15L28.0817 2193.88L38.6304 2213.4L26.902 2219.74L23.3857 2213.23L11.6573 2219.57L18.6898 2232.58L1.74865 2241.74L-5.28388 2228.72L-13.2125 2233L-17.4321 2225.19L-31.6424 2226.14L-40.0814 2210.52L-52.1819 2215.37L-57.935 2228.57L-53.0123 2237.68L-61.5602 2242.3L-57.4134 2263.6L-67.4405 2279.11L-58.2982 2296.04L-61.2565 2317.81L-82.2872 2323.17L-98.1887 2317.58L-102.265 2310.04L-123.002 2309.13L-131.55 2313.74L-150.538 2278.59L-160.511 2283.98L-180.202 2247.53L-190.805 2238.12L-196.431 2227.71L-197.783 2214.98L-200.596 2209.78L-212.606 2197.77L-214.715 2193.86L-201.875 2183.56L-198.953 2168.53L-188.908 2149.65L-194.534 2139.23L-190.188 2123.43L-188.654 2102.42L-185.029 2088.69L-176.444 2077.33L-175.669 2065.14L-179.834 2047.21L-173.377 2035.31L-164.829 2030.69L-181.004 2000.75L-197.288 1991.05L-222.786 1977.91L-238.385 1972.89L-249.728 1968.92L-259.573 1950.7L-251.692 1938.03L-247.346 1922.23L-248.698 1909.51L-255.027 1897.79L-249.328 1894.71L-246.406 1879.68L-236.434 1874.29L-217.228 1868.96L-202.898 1862.9L-194.872 1865.29L-190.214 1864.46L-181.152 1877.83L-174.803 1874.4L-169.64 1875.29L-164.752 1884.34L-151.434 1877.15L-132.983 1873.91L-118.215 1901.24L-108.686 1892.73L-100.074 1888.08L-89.5452 1885.76L-79.1199 1880.12L-80.3399 1862.28L-87.3724 1849.27L-43.0648 1825.33L-26.517 1824.8L-23.0007 1831.31L-14.8717 1837.01L-5.7294 1853.93L-22.6705 1863.08L-4.01289 1866.46L-6.41255 1874.48L-7.15531 1890.77M111.01 2070.04L114.01 2060.01M70.9505 1805.78L68.4476 1810.5L68.0543 1819.12L61.4351 1819.33L48.9001 1821.06L47.1004 1827.08L43.9975 1833.8L38.0815 1835.31L28.8561 1836.93L25.0499 1842.35L20.8505 1856.39L14.438 1863.22L2.7096 1869.55L-7.199 1891.72L-7.15531 1890.77M70.9505 1805.78L68.8407 1801.88L52.7894 1797.09L55.2924 1792.38L63.608 1782.84L66.6075 1772.81L71.5102 1760.07L73.8065 1748.74L61.8512 1726.61L61.6445 1720L67.9536 1709.86L69.0501 1702.54L75.9592 1690.4L72.5261 1665.35L74.1192 1652.72L77.1188 1642.69L81.6281 1638.57L93.6666 1642.16L103.099 1647.15L110.421 1648.24L122.46 1651.83L131.085 1652.21L140.207 1647.29L149.433 1645.67L158.058 1646.05L169.787 1639.72L177.709 1638.8L191.754 1642.98L206.089 1635.24M70.9505 1805.78L72.1503 1801.77M206.089 1635.24L207.579 1619.3L205.862 1606.77L200.236 1596.36L200.526 1584.43L206.628 1567.68L206.712 1549.14L210.208 1533.79L211.904 1524.47L212.194 1512.54L210.581 1503.32L208.864 1490.79L200.425 1475.17L207.934 1461.03L195.276 1437.59L199.682 1430.17L210.107 1424.54L195.339 1397.2L201.648 1387.06L194.326 1385.97L190.416 1388.08L183.384 1375.07L184.48 1367.75L179.206 1357.98M206.089 1635.24L209.502 1638.44L209.812 1648.36L215.438 1658.78L217.154 1671.31L219.967 1676.51L220.277 1686.44L216.078 1700.48L218.994 1708.99L217.505 1724.93L213.099 1732.36L201.867 1733.38L201.474 1742L199.177 1753.33L197.481 1762.66L193.778 1771.38L182.856 1782.33L186.579 1795.45L202.217 1787.01L211.546 1788.69L218.578 1801.71L215.579 1811.74L198.534 1817.58L194.625 1819.7L183.393 1820.72L176.877 1824.24L175.181 1833.56L175.491 1843.49M95.6463 1069.3L108.988 1072.18L111.801 1077.39L114.407 1075.98L128.472 1102.02L133.892 1105.82L136.911 1117.64L138.524 1126.86L131.512 1135.69L135.028 1142.2L146.963 1142.48L150.48 1148.99L147.687 1165.63L151.203 1172.14L153.623 1185.97L157.346 1199.1L161.359 1200.29L168.081 1203.39L169.798 1215.91L159.372 1221.55L157.676 1230.87L165.702 1233.26L172.527 1239.67L178.857 1251.38L176.25 1252.79L176.664 1266.02L172.858 1271.44L176.374 1277.95L176.891 1294.49L169.878 1303.32L160.756 1308.25L163.569 1313.46L164.086 1329.99L162.989 1337.31L166.506 1343.82L173.931 1348.22L179.206 1357.98M95.6463 1069.3L82.4862 1072.99L69.4546 1080.03L65.5771 1091.55L55.5583 1101.05M95.6463 1069.3L90.4723 1065.95L93.7782 1060.22L98.4392 1052.66L108.368 1052.34M55.5583 1101.05L47.3329 1101.4L31.6949 1109.85L21.3659 1109.43L16.1533 1112.24L2.99325 1115.93L-0.497945 1109.47L-7.92375 1105.07L-17.4591 1096.77L-27.3047 1078.54L-11.6667 1070.09L-10.5703 1062.77L1.26149 1059.74L20.8089 1049.18L27.4282 1048.97M55.5583 1101.05L58.0177 1086.2L48.8807 1069.29L40.9364 1065.22L31.718 1051.7L27.4282 1048.97M27.4282 1048.97L37.75 1040.03L41.3496 1028L46.5622 1025.18L31.7939 997.844L34.6901 984.508M34.6901 984.508L19.2186 955.867M34.6901 984.508L27.6575 971.489M19.2186 955.867L6.47685 950.978L1.55408 941.866L1.14077 928.635L-34.7251 862.242L-45.5638 854.643L-53.2996 840.323M19.2186 955.867L27.6575 971.489M-53.2996 840.323L-93.6976 862.146L-83.1488 881.674L-89.4579 891.809L-106.606 894.345L-107.619 883.121L-113.245 872.706L-121.374 867.007L-125.594 859.196L-137.342 843.68L-150.684 840.797L-161.109 846.429L-164.625 839.92L-181.98 835.841L-187.192 838.657L-192.115 829.544L-198.631 833.064L-213.483 824.269L-220.205 821.174L-225.831 810.759L-238.076 800.557L-242.089 799.361L-251.025 789.053L-263.063 785.466L-277.211 777.973L-292.849 786.421L-300.378 778.716L-306.211 761.686L-302.508 752.959L-307.431 743.846L-307.741 733.923L-310.761 722.101L-320.793 719.111L-328.322 711.406L-338.354 708.417L-343.773 704.618L-347.786 703.422L-359.038 682.593L-357.838 678.581L-360.651 673.374L-359.452 669.362L-348.923 667.038L-346.42 662.322L-343.524 648.986L-339.718 643.566L-333.305 636.739L-328.092 633.923L-318.164 633.605L-313.551 632.795L-323.086 624.492L-323.893 619.882L-321.493 611.859L-321.7 605.244L-314.584 599.718L-319.507 590.605L-323.623 586.102L-322.63 575.475L-317.521 569.352L-299.277 559.496L-287.838 565.089L-282.419 568.888L-271.683 573.18L-263.058 573.565L-253.336 566.632L-248.226 560.508L-245.93 549.177L-232.898 542.137L-230.085 547.345L-233.085 557.374L-232.878 563.989L-233.975 571.308L-233.065 579.225L-224.129 589.534L-218.503 599.948L-208.265 609.553L-176.162 619.119L-161.414 624.605L-149.168 634.808L-137.027 641.703L-127.801 640.082L-119.176 640.468L-112.763 633.641L-104.448 624.103L-100.042 616.678L-87.4031 618.259L-79.9775 622.656L-70.8553 617.729L-65.436 621.528L-57.4102 623.92L-48.7849 624.305L-45.3718 627.506L-40.33 629.828M-53.2996 840.323L-66.1446 832.127L-73.8804 817.806L-83.3126 812.811L-91.0482 798.491L-92.1648 783.959L-111.856 747.508L-115.869 746.312L-124.101 737.305L-136.636 739.032L-144.662 736.64L-155.191 738.964L-173.352 730.276L-178.978 719.862L-193.622 717.682L-198.545 708.57L-203.861 708.078L-214.907 693.864L-222.332 689.466L-228.661 677.75L-236.191 670.045L-246.119 670.364L-255.965 652.138L-255.572 643.517L-247.649 642.601L-235.114 640.875L-224.689 635.243L-216.373 625.705L-207.251 620.778L-201.625 631.192L-192.69 641.501L-187.974 643.998L-181.954 645.792L-176.535 649.591L-164.6 649.871M96.4636 650.108L92.9473 643.599L88.6245 632.481L83.7017 623.368L83.4951 616.753L75.7593 602.433L64.5273 603.455L56.7084 607.679L44.7732 607.399L31.6384 611.131L23.0128 610.746L15.6903 609.656L9.67102 607.862L3.05178 608.075L-6.27696 606.387L-18.1088 609.416L-20.715 610.824L-22.4115 620.148L-24.2113 626.166L-38.6494 630.602L-40.33 629.828M96.4636 650.108L101.78 650.6L122.63 639.337L132.952 630.397L153.803 619.134L159.119 619.625L165.945 626.028L175.273 627.716L181.892 627.504L201.44 616.944L207.852 610.116L219.581 603.781L236.335 609.865L244.258 608.949L243.865 617.57L244.071 624.185L246.884 629.393L251.497 628.583L253.607 632.488L239.272 640.232L226.944 648.574L227.647 649.875L213.312 657.619L207.603 665.748L200.59 674.582L192.875 682.113L173.328 692.673L170.824 697.388L159.903 708.333L157.4 713.049M96.4636 650.108L96.6702 656.724L91.4575 659.54L102.006 679.067L82.459 689.627M157.4 713.049L162.322 722.162M157.4 713.049L158.103 714.351M162.322 722.162L169.045 725.257L177.67 725.643L188.096 720.011L190.909 725.218L202.037 720.888L213.766 714.553L222.205 730.175L219.702 734.89L215.399 745.623L215.502 748.931L207.084 755.16L203.484 767.195L193.762 774.129L179.427 781.872L172.105 780.783L160.666 775.19L155.247 771.391L145.815 766.396L141.699 761.892L128.15 752.394L124.241 754.506L116.918 753.416L108.789 747.717L97.5575 748.739L88.3319 750.36L80.5129 754.583L75.197 754.092L71.6807 747.583L66.8612 741.777L62.9516 743.889L62.5585 752.51L62.816 753.68M162.322 722.162L158.103 714.351M73.5784 956.773L79.1842 945.336L84.2936 939.213L94.7189 933.581L98.525 928.161L97.7971 921.828M73.5784 956.773L76.3913 961.98M73.5784 956.773L74.2816 958.075M76.3913 961.98L89.5263 958.248L90.9329 960.852L92.546 970.071L90.9529 982.704L88.6566 994.035M76.3913 961.98L74.2816 958.075M91.6175 1021.33L99.2256 1035.41L119.29 1041.39L133.31 1045.53L139.825 1042.01L142.747 1028.72L142.54 1022.11L151.455 1010.56L155.655 996.522L149.429 988.113L151.725 976.782L156.028 966.049L161.944 964.535L168.976 977.553L178.615 989.164L188.047 994.158L193.26 991.343L216.84 1003.83L227.266 998.199L232.35 992.029L235.375 982.046L235.168 975.431L236.264 968.111L226.419 949.886L240.754 942.142L245.863 936.019L251.076 933.203L259.805 936.896L267.23 941.293L273.746 937.773L280.758 928.94L281.958 924.928L282.351 916.307L294.08 909.972L300.079 889.914L315.924 888.081L325.046 883.153L331.355 873.018L343.683 864.677L352.806 859.749L361.721 848.206L366.934 845.39L374.463 853.095L378.662 839.054L400.816 827.087L400.526 839.015L409.668 855.939L392.727 865.091L413.185 862.448L418.81 872.863L416.514 884.194L409.58 896.288L400.458 901.216L389.148 898.977L388.858 910.906L384.452 918.331L377.439 927.165L382.052 926.354L386.562 922.237L391.567 912.805L396.077 908.688L401.29 905.872L409.915 906.258L419.244 907.945L430.083 915.544L440.218 921.841M440.218 921.841L447.747 929.545M440.218 921.841L443.445 925.143M447.747 929.545L454.676 939.256L465.515 946.855L473.541 949.246L478.753 946.43L489.489 950.721L506.43 941.57L512.139 933.44L521.758 923.199L534.293 921.473L540.415 926.574L550.841 920.942L563.086 931.145L572.415 932.832L585.653 932.408L591.672 934.201L589.169 938.917L590.679 944.828L588.176 949.544L588.279 952.851L598.601 943.912L602.511 941.8L606.73 949.611L613.556 956.014L617.879 967.133L620.692 972.34L620.402 984.268L626.028 994.683L634.054 997.075L643.383 998.762L649.899 995.242L655.215 995.734L667.046 992.706L679.085 996.293L691.723 997.874M447.747 929.545L443.445 925.143M691.723 997.874L701.755 1000.86L717.703 1002.34L732.348 1004.52L756.425 1011.69L766.56 1017.99L774.586 1020.38L777.399 1025.59L787.431 1028.58L799.573 1035.47L808.199 1035.86L821.54 1038.74L828.966 1043.14L838.895 1042.82L854.946 1047.6L862.372 1052L873.21 1059.6L890.275 1075.61L902.417 1082.5L934.996 1064.9L940.312 1065.39L950.447 1071.69L959.28 1078.69L968.815 1086.99L989.913 1126.05L1004.25 1118.3L1012.87 1118.69L1019.39 1115.17L1032.13 1120.06L1037.55 1123.86L1039.66 1127.76L1036.56 1134.49L1042.89 1146.2L1053.02 1152.5L1065.66 1154.08L1081.61 1155.56L1085.52 1153.44L1099.46 1154.32L1132.04 1136.72L1142.86 1122.47L1153.28 1116.84L1161.2 1115.92L1174.13 1105.57L1188.16 1087.91L1195.98 1083.68M691.723 997.874L698.156 1012.9L710.194 1016.49L715.117 1025.6L728.149 1018.56L739.401 1039.39L744.427 1051.81L740.724 1060.54L738.324 1068.56L733.918 1075.98L741.654 1090.3L750.28 1090.69L767.221 1081.54L772.847 1091.95L796.304 1079.28L805.446 1096.2L809.355 1094.09L821.208 1112.92L815.995 1115.73L818.808 1120.94L810.989 1125.16L813.802 1130.37L820.421 1130.16L846.484 1116.08L848.801 1126.6L860.239 1132.19L863.756 1138.7L875.297 1147.6L879.207 1145.49L887.542 1157.8M1195.98 1083.68L1206.71 1087.97L1210.43 1101.1L1219.76 1102.79L1231.1 1105.07L1246.57 1133.71L1260.51 1134.59L1268.74 1143.6L1277.18 1159.22L1285.31 1164.92L1297.85 1163.19L1307.18 1164.88L1312 1170.68L1315.51 1177.19L1313.82 1186.52M1195.98 1083.68L1222.04 1069.6L1237.18 1066.47L1250.21 1059.43L1260.14 1059.11L1273.28 1055.38L1279.3 1057.17L1288.62 1058.86L1295.35 1061.96L1310.59 1062.13L1314.81 1069.94L1323.93 1065.01L1325.03 1057.69L1347.18 1045.72L1353.91 1048.82L1356.2 1037.49L1410.94 1007.92L1414.95 1009.12L1426.2 1029.95L1432.92 1033.04L1440.24 1034.13L1455.88 1025.68L1462.71 1032.09L1478.66 1033.56L1488.59 1033.24L1496.9 1023.71L1495.29 1014.49L1486.15 997.565L1493.86 990.033L1494.17 999.956L1508.94 1027.29L1519.88 1038.2L1525.9 1039.99L1534.73 1047L1538.25 1053.5L1554.9 1056.28L1574.45 1045.72L1585.08 1046.71L1598.52 1052.9L1610.67 1059.79L1616.79 1064.89L1624.21 1069.29L1632.65 1084.91L1627.85 1100.96M1627.85 1100.96L1627.36 1106.27L1624.96 1114.29L1621.86 1121.02L1616.85 1130.45L1618.96 1134.35L1608.04 1145.3L1605.53 1150.01L1598.73 1165.46L1596.93 1171.48L1583.9 1178.52L1576.89 1187.35L1572.98 1189.46L1570.87 1185.56L1553.43 1200.02L1548.22 1202.84L1545.82 1210.86L1534.89 1221.81L1526.08 1236.66L1522.17 1238.77L1510.65 1251.72L1510.26 1260.34L1500.64 1270.58L1492.82 1274.81L1479.6 1297.08L1473.89 1305.21L1464.98 1316.76L1467.09 1320.66L1458.98 1336.81L1451.97 1345.65L1443.75 1358.49L1436.84 1370.63L1431.13 1378.76L1422.12 1387M1627.85 1100.96L1613.21 1098.78L1602.78 1104.41L1597.68 1110.53L1591.16 1114.05L1584.15 1122.89L1570.91 1123.31L1562.39 1126.23L1553.55 1119.23L1541.72 1122.26L1546.65 1131.37L1536.32 1140.31L1506.35 1156.5L1498.63 1164.04L1500.74 1167.94L1508.87 1173.64L1508.48 1182.26L1502.17 1192.4L1491.75 1198.03L1482.13 1208.27L1470.4 1214.61L1464.69 1222.73L1467.01 1233.26L1457.99 1241.49L1462.21 1249.3L1454.59 1260.14L1443.16 1254.55L1436.14 1263.38M1422.12 1387L1415.1 1395.83L1417.21 1399.74L1396.36 1411L1386.04 1419.94L1375.62 1425.57L1368.6 1434.4L1364.69 1436.52L1361.8 1449.85L1342.25 1460.41L1343.86 1469.63L1332.13 1475.97L1329.03 1482.69L1326.53 1487.4L1322.83 1496.13L1323.03 1502.75L1321.16 1505.67M1422.12 1387L1423.01 1373.06L1423.3 1361.13L1429.6 1351L1431.9 1339.67L1437.4 1324.92L1436.99 1311.69L1440.69 1302.97L1438.98 1290.44L1439.27 1278.51L1435.05 1270.7L1436.14 1263.38M1284.06 1549.03L1293.18 1544.1L1290.37 1538.89L1294.28 1536.78L1302.6 1527.24L1305.7 1520.52L1314.82 1515.59L1321.16 1505.67M1284.06 1549.03L1277.75 1559.16L1272.25 1573.91L1256.61 1582.35L1254.21 1590.38L1245.9 1599.91L1231.56 1607.66L1223.25 1617.19L1215.43 1621.42L1201.9 1633.77L1194.08 1638L1187.07 1646.83L1177.95 1651.76L1170.33 1662.6L1162.51 1666.82L1156.2 1676.95L1148.39 1681.18L1137.57 1695.43L1120.63 1704.58L1117.63 1714.61L1066.8 1742.07L1062.4 1749.49L1054.18 1762.34L1033.33 1773.6M1284.06 1549.03L1280.65 1545.82L1271.32 1544.14L1260.77 1524.61M1033.33 1773.6L1014.18 1775.54L993.826 1781.49L981.188 1779.91L975.582 1791.34L965.963 1801.59L962.964 1811.61L943.416 1822.17L934.687 1818.48L928.616 1815.03M1033.33 1773.6L1027.71 1763.19L1016.58 1767.52L1009.75 1761.11L1011.35 1748.48L1003.61 1734.16L982.761 1745.42L980.651 1741.52L970.226 1747.15L969.916 1737.23L964.29 1726.81L956.864 1722.42L930.801 1736.49L933.427 1756.94L929.414 1755.74L925.195 1747.93L907.737 1740.54L898.408 1738.86L888.976 1733.86M928.616 1815.03L922.545 1811.59M1436.14 1263.38L1430.52 1252.97L1434.72 1238.93L1430.5 1231.11L1418.56 1230.84L1409.73 1223.83L1398.48 1203.01L1389.15 1201.32L1382.82 1189.6L1375.6 1191.82L1367.78 1196.04L1370.9 1211.17L1364.39 1214.69L1355.76 1214.31L1341.43 1222.05L1337.21 1214.24L1325.98 1215.26L1319.96 1213.47L1315.74 1205.66L1312.82 1197.14L1313.82 1186.52M1313.82 1186.52L1303.78 1183.53L1296.25 1175.82L1285.83 1181.45L1270.48 1177.97L1266.57 1180.09L1272.9 1191.8L1262.48 1197.43L1256.77 1205.56L1261.69 1214.68L1260.59 1221.99L1256.79 1227.41L1250.37 1234.24L1253.19 1239.45L1254.7 1245.36L1259.52 1251.17L1275.77 1262.56L1274.68 1269.88L1272.98 1279.21L1276.99 1280.4L1288.33 1282.69L1292.55 1290.5L1288.74 1295.92L1280.92 1300.14L1277.82 1306.86L1272.36 1308.13L1265.79 1304.96L1263.67 1299.37L1267.56 1295.83L1270.08 1292.54L1265.16 1283.43L1262.35 1278.22L1246.71 1286.67L1248.32 1295.89L1253.25 1305L1261.48 1314.01L1269.88 1312.53M1270.7 1312.39L1269.88 1312.53M983.762 1416.95L988.271 1412.83L1011.73 1400.16L1016.34 1399.35L1029.48 1395.61L1031.77 1384.28L1037.79 1386.08L1041.7 1383.97L1051.84 1390.26L1059.06 1388.04L1064.87 1383.22L1087.02 1371.25L1102.06 1364.81L1104.87 1370.02L1114 1365.09L1111.18 1359.89L1110.17 1348.66L1121.9 1342.32L1132.43 1340L1138.55 1345.1L1146.28 1359.42L1150.3 1360.62L1169.84 1350.06L1180.48 1351.04L1189.6 1346.11L1193.3 1337.39L1201.02 1329.86L1209.15 1335.55L1217.58 1351.18L1224.7 1345.65L1227.8 1338.93L1235.13 1340.02L1239.14 1341.21L1246.96 1336.99L1249.46 1332.27L1255.17 1324.15L1253.76 1321.54L1261.58 1317.32L1269.88 1312.53M983.762 1416.95L987.981 1424.76L984.775 1428.17L983.575 1432.18L988.995 1435.98L1001.63 1437.56L1011.07 1442.56L1015.28 1450.37L1023.21 1449.45L1034.94 1443.12L1038.45 1449.63L1050.99 1447.9L1060.13 1464.82L1073.97 1462.39L1084.39 1456.76L1087.91 1463.27L1091.63 1476.4L1097.05 1480.19L1098.66 1489.41L1099.68 1500.64L1101.79 1504.54L1113.02 1503.52L1117.43 1496.1L1131.76 1488.35L1143.72 1510.48L1153.64 1510.16L1157.16 1516.67L1156.06 1523.99L1164.19 1529.69L1174.72 1527.37L1182.95 1536.37L1192.08 1531.45L1193.69 1540.67L1197.91 1548.48L1204.03 1553.58L1213.15 1548.65L1218.76 1537.21L1214.54 1529.4L1230.18 1520.95L1238.2 1523.35L1260.77 1524.61M983.762 1416.95L973.936 1420.57L967.814 1415.47L959.788 1413.08L952.466 1411.99L943.737 1408.3L939.828 1410.41L935.525 1421.14L932.422 1427.86L912.564 1428.5L908.551 1427.3L906.938 1418.08L905.428 1412.17L898.003 1407.78L891.487 1411.3L881.558 1411.61L873.636 1412.53L859.301 1420.27L856.281 1408.45L847.842 1392.83L851.545 1384.1L857.254 1375.97L853.035 1368.16L849.022 1366.97L843.396 1356.55L846.602 1353.14L844.286 1342.62L843.376 1334.7L838.453 1325.59L831.937 1329.11L828.421 1322.6L830.924 1317.88L834.027 1311.16L840.439 1304.33L843.149 1306.23L861.393 1296.38L866.503 1290.25L876.928 1284.62L878.624 1275.3L874.405 1267.49M1260.77 1524.61L1266.58 1519.79L1305.68 1498.67L1307.68 1499.27L1311.8 1503.77L1321.16 1505.67M874.405 1267.49L873.846 1260.22M874.405 1267.49L873.909 1261.03M887.542 1157.8L889.756 1165.02L901.008 1185.85L899.208 1191.86L892.196 1200.7L886.486 1208.83L890.002 1215.34L882.39 1226.18L874.571 1230.4L873.371 1234.41L872.378 1245.04L873.288 1252.95L873.846 1260.22M887.542 1157.8L869.298 1167.66L857.363 1167.38L844.518 1159.18L829.873 1157L814.525 1153.52L803.893 1152.54L772.617 1169.44L762.399 1181.68L755.883 1185.2L749.077 1200.65L743.368 1208.78L736.852 1212.3L725.413 1206.71L724.194 1188.87L725.083 1174.93L725.167 1156.39L712.425 1151.5L701.503 1162.45L712.052 1181.97L656.016 1212.24L653.203 1207.04L636.551 1204.26L618.97 1171.71C619.708 1174.12 619.959 1177.91 615.061 1173.83C604.387 1171.52 595.1 1171.15 591.79 1171.26L582.565 1172.88L571.933 1171.9L562.004 1172.22L542.457 1182.78L536.334 1177.67L530.315 1175.88L512.961 1171.8L507.583 1166.3M888.976 1733.86L886.866 1729.96M888.976 1733.86L896.008 1746.88L896.525 1763.42L883.39 1767.15L878.674 1764.65L867.132 1755.75L863.616 1749.24M873.909 1261.03L852.044 1272.84L844.619 1268.44L830.284 1276.19L819.755 1278.51L816.942 1273.3L821.348 1265.88L815.019 1254.16L799.381 1262.61L796.981 1270.63L792.679 1281.36L791.086 1294L783.267 1298.22L773.834 1293.23L767.319 1296.75L771.538 1304.56L762.416 1309.48L756.087 1297.77L744.358 1304.1L744.172 1319.34L732.237 1319.06L729.63 1320.47L723.818 1325.29L715.606 1338.14L693.535 1331.56L690.832 1335.41M873.909 1261.03L873.846 1260.22M452.496 1293.6L456.405 1291.48L463.934 1299.19L484.328 1336.94L481.329 1346.97L488.361 1359.99L506.709 1353.44L515.831 1348.51L507.392 1332.89L508.488 1325.57L508.985 1320.26L508.179 1315.65L509.875 1306.32L517.694 1302.1L526.423 1305.79L546.487 1311.77L550.706 1319.58L566.344 1311.14L573.17 1317.54L581.899 1321.23L589.821 1320.32L596.854 1333.33L602.273 1337.13L612.202 1336.82L617.415 1334L629.35 1334.28L632.866 1340.79L640.188 1341.88L653.22 1334.84L661.246 1337.23L680.793 1326.67L690.329 1334.97L690.832 1335.41M452.496 1293.6L439.134 1268.86L421.883 1268.09L414.56 1267M452.496 1293.6L401.672 1321.05L401.382 1332.98L409.015 1343.99L412.531 1350.5L409.531 1360.53L407.835 1369.86L410.855 1381.68L411.268 1394.91L408.972 1406.24L408.578 1414.86L417.017 1430.48L432.366 1433.96L440.391 1436.36L446.017 1446.77L442.211 1452.19L430.379 1455.22L438.818 1470.84L447.651 1477.84L451.87 1485.65L436.232 1494.1L446.781 1513.63L452.097 1514.12L459.523 1518.52L470.858 1520.8L480 1537.72L477.104 1551.06L486.246 1567.98L486.453 1574.6L472.118 1582.34L475.634 1588.85L485.066 1593.85L493.195 1599.55L508.833 1591.1L516.342 1576.95L524.161 1572.73L532.477 1563.19L530.367 1559.29L538.579 1546.44L550.308 1540.11L553.824 1546.61C557.837 1547.81 565.143 1552.61 562.263 1562.24C559.384 1571.86 558.401 1580.02 558.27 1582.89L558.477 1589.51L538.93 1600.07L535.827 1606.79L528.008 1611.01L525.898 1607.11L516.569 1605.42L504.841 1611.76L503.744 1619.07L494.622 1624L486.597 1621.61L480.97 1611.2L469.739 1612.22L465.519 1604.41L454.287 1605.43L445.662 1605.04L429.114 1605.57L418.688 1611.21L412.566 1606.11L396.928 1614.55L388.322 1636.02L392.749 1650.45L396.265 1656.95L398.188 1676.1L399.098 1684.01M414.56 1267L411.044 1260.49L413.444 1252.47L422.566 1247.54L426.868 1236.81L434.274 1219.35L439.487 1216.54L435.267 1208.73L446.996 1202.39L454.711 1194.86L460.317 1183.42L461.91 1170.79L459.097 1165.58L472.129 1158.54L480.361 1167.55L485.077 1170.05L492.503 1174.44L507.583 1166.3M414.56 1267L404.031 1269.33L395.406 1268.94L391 1276.36L387.09 1278.48L383.574 1271.97L371.742 1275L368.039 1283.72L367.046 1294.35L358.028 1302.59L351.512 1306.11L338.873 1304.52L330.145 1300.83L321.312 1293.83L306.461 1285.04L297.732 1281.34L287.7 1278.35L284.183 1271.84L282.57 1262.62L272.931 1251.01L264.203 1247.32L260.003 1261.36L263.623 1271.18L262.03 1283.81L259.03 1293.84L254.521 1297.96L250.715 1303.38L246.495 1295.57L239.979 1299.09L236.276 1307.81L236.586 1317.74L222.542 1313.55L214.806 1299.23L201.774 1306.27L199.581 1320.91L197.285 1332.24L190.976 1342.38L184.067 1354.52L179.206 1357.98M399.098 1684.01L402.221 1699.14L405.737 1705.65L419.886 1713.15L432.731 1721.34L432.337 1729.96L418.396 1729.09L405.654 1724.2L400.648 1733.63L391.526 1738.56L386.727 1754.6L374.998 1760.94L370.096 1773.68M431.86 993.625L430.163 1002.95L431.176 1014.17L433.493 1024.7L431.093 1032.72L432.81 1045.25L440.732 1044.33L461.583 1033.07L472.215 1034.05L476.041 1050.48L474.945 1057.8L484.087 1074.72C485.212 1076.81 488.569 1076.79 490.106 1076.52L494.326 1084.33L492.029 1095.66L481.294 1091.37L469.565 1097.7L475.191 1108.12L488.347 1126.24L501.895 1135.74L504.315 1149.56L505.431 1164.1L507.583 1166.3M431.86 993.625L432.75 979.69L432.439 969.768L432.833 961.147L437.239 953.721L440.342 947L436.122 939.189L437.322 935.177L441.128 929.758L442.328 925.746L443.445 925.143M431.86 993.625L423.834 991.234L414.712 996.161L408.506 1009.6L406.706 1015.62L406.313 1024.24L403.81 1028.96L402.61 1032.97L398.701 1035.08L393.385 1034.59L389.475 1036.7L397.211 1051.02L397.521 1060.94L396.321 1064.96L396.631 1074.88L375.781 1086.14L366.452 1084.46L365.045 1081.85L366.142 1074.53L360.516 1064.12L355.2 1063.63L345.168 1060.64L338.135 1047.62L330.213 1048.53L320.884 1046.85L308.742 1039.95L312.445 1031.23L312.135 1021.3L308.019 1016.8L292.381 1025.25L286.052 1013.53L278.129 1014.45L276.02 1010.54L266.691 1008.85L261.478 1011.67L256.762 1009.17L248.943 1013.4L240.318 1013.01L237.505 1007.8L217.957 1018.36L209.745 1031.21L194.107 1039.66M1128.55 70.71L1129.01 70.7209M1129.01 70.7209L1140.48 70.9896L1149.71 69.3694L1160.03 60.4299L1169.15 55.502L1168.14 44.2773L1173.35 41.4614L1170.54 36.2542L1163.92 36.4664L1161.81 32.5608L1148.78 39.6006L1145.78 49.6299L1137.96 53.8536L1136.76 57.8652L1132.95 63.2846L1129.01 70.7209ZM313.764 2027.78L319.97 2014.33L332.195 2002.68L342.62 1997.05L346.323 1988.33L341.4 1979.21L334.885 1982.73L337.181 1971.4L335.961 1953.56L326.819 1936.64L334.638 1932.41L344.256 1922.17L347.959 1913.45L359.688 1907.11L365.893 1893.67L372.803 1881.53L378.408 1870.09L382.111 1861.36L401.659 1850.8L404.555 1837.47L388.11 1841.3L378.575 1833L369.453 1837.93L375.452 1817.87L368.729 1814.78L357.497 1815.8L354.788 1813.9L362.4 1803.06L380.644 1793.2L385.547 1780.47L370.096 1773.68M313.764 2027.78L310.041 2014.65L304.622 2010.85L296.886 1996.53L296.576 1986.61L293.66 1978.09L303.279 1967.85L307.685 1960.43L299.059 1960.04L290.227 1953.04L272.646 1920.5L266.523 1915.39L257.194 1913.71L248.072 1918.64L238.04 1915.65L233.82 1907.84L224.285 1899.53L207.034 1898.76L201.511 1891.65L194.292 1893.87L184.777 1907.42L175.055 1914.35L167.029 1911.96M370.096 1773.68L362.67 1769.28L359.857 1764.07L351.831 1761.68L339.999 1764.71L330.877 1769.64L319.355 1782.59L316.356 1792.62L302.021 1800.36C299.936 1801.49 299.015 1803.11 298.815 1803.77L295.112 1812.5L293.416 1821.83C290.768 1821.91 285.293 1823.41 282.887 1824.15L260.733 1836.12L259.637 1843.44M259.853 1843.84L254.641 1846.65L247.908 1849.77L240.689 1851.99L229.354 1849.71L218.825 1852.03L211.503 1850.94L200.768 1846.65C199.23 1846.92 195.352 1847.22 192.142 1846.26L182.11 1843.27L175.594 1846.79L178.614 1858.62L182.833 1866.43L180.434 1874.45L177.331 1881.17L168.312 1889.41L166.616 1898.73L167.029 1911.96M167.029 1911.96L165.436 1924.6L153.707 1930.93L145.599 1947.08L158.257 1970.52L140.013 1980.37L131.904 1996.53L125.388 2000.05L119.989 2018.1L123.505 2024.61L106.564 2033.76L103.048 2027.25L87.8031 2027.08L80.7907 2035.91L85.7134 2045.02L99.0551 2047.9L103.978 2057.02L114.01 2060.01M863.616 1749.24L857.287 1737.53L848.558 1733.83L858.983 1728.2L864.485 1713.46L860.059 1699.03L856.181 1680.95L861.136 1669.86L856.916 1662.05L854.993 1642.91L841.631 1618.17L835.509 1613.07L846.431 1602.13L848.727 1590.8L842.004 1587.7L839.895 1583.8L828.146 1568.28L813.005 1571.41L800.366 1569.83L791.141 1571.45L780.095 1557.24L767.437 1533.81L773.901 1528.63L787.294 1533.17L782.558 1508.82L776.932 1498.41L767.293 1486.79L754.655 1485.21L747.881 1480.46L742.255 1470.05L743.403 1464.38L739.887 1457.88L728.893 1445.31L715.893 1432.16L709.77 1427.06L704.847 1417.94L702.138 1416.04L706.44 1405.31L702.924 1398.8L696.802 1393.7L698.653 1389.34L694.878 1374.56L688.363 1378.08L680.627 1363.76L686.833 1350.32L687.826 1339.69L690.832 1335.41M80.0874 2034.61L54.0241 2048.69C53.9553 2046.48 53.0149 2041.83 49.8046 2040.88C46.5944 2039.92 31.0436 2034.19 41.779 2038.48C37.7661 2037.29 29.1986 2034.52 27.0308 2033L18.9018 2027.3L12.9859 2028.81L9.46963 2022.3C8.76638 2021 1.94053 2014.6 3.8436 2011.89C5.36606 2009.72 7.74639 2002.49 8.74624 1999.15C7.93969 1994.54 7.73295 1987.93 7.62961 1984.62M7.62961 1984.62C7.52627 1981.31 10.5259 1971.28 10.4225 1967.97C8.20946 1960.76 5.39645 1955.55 3.98995 1952.95C2.58345 1950.35 0.577016 1949.75 -0.829487 1947.14C-2.23599 1944.54 -9.55843 1943.45 -10.2617 1942.15C-10.8243 1941.11 -11.9714 1936.91 -12.4747 1934.94L-11.8748 1932.93C-10.075 1926.91 -6.86888 1923.5 -6.26896 1921.49C-5.66903 1919.49 -1.15965 1915.37 0.846752 1915.97C3.34974 1911.25 2.5432 1906.64 1.83995 1905.34C1.27734 1904.3 -1.60744 1901.04 -2.97949 1899.54L-9.10209 1894.43L-7.15531 1890.77M7.62961 1984.62L2.41696 1987.43L-7.38824 2012.91L-7.83097 2024.92L-2.20494 2035.34L-19.9032 2036.49L-20.7255 2045.34L-20.78 2055.46L-28.1986 2067.88L-24.6824 2074.39L-33.8045 2079.31L-34.6943 2093.25L-31.178 2099.76L-39.1504 2106.63L-54.8217 2115.09L-70.9834 2085.17L-88.7667 2072.7L-96.8887 2067.88L-107.663 2047.94L-116.211 2052.55L-129.917 2054.44L-134.535 2045.89L-143.197 2046.89L-146.047 2048.43L-141.658 2049.74L-154.136 2067.52L-157.755 2067.64L-161.603 2060.51L-164.911 2047.58L-164.6 2034.52L-166.139 2031.67M-6.59908 1889.72L-7.15531 1890.77M382.871 1270.67L370.212 1247.23L362.187 1244.84L363.883 1235.52L364.876 1224.89L363.16 1212.36L370.172 1203.53L365.249 1194.42L347.998 1193.65L339.973 1191.25L348.888 1179.71L345.372 1173.2L340.656 1170.7L332.527 1165.01L322.681 1146.78L312.546 1140.48L296.908 1148.93L288.469 1133.31L290.662 1118.67L296.371 1110.54L298.067 1101.22L303.673 1089.78L301.563 1085.87L293.538 1083.48L289.628 1085.59L277.093 1087.32L274.074 1075.5L269.854 1067.69C267.041 1062.48 262.394 1062.19 260.422 1062.69L240.874 1073.25L229.436 1067.66L211.978 1060.27L204.656 1059.18L194.107 1039.66M194.107 1039.66L182.378 1045.99L172.14 1036.39L163.411 1032.69L158.301 1038.82L156.708 1051.45L155.509 1055.46L152.406 1062.18L147.193 1065L139.767 1060.6L133.045 1057.51L121.606 1051.91L105.761 1053.75M92.193 1022.4L90.5798 1013.18L87.7668 1007.97L79.9478 1012.19L76.4316 1005.68L79.5345 998.962L89.9599 993.33M175.839 1844.13L166.969 1846.41L163.556 1843.21L158.24 1842.72L149.221 1850.95L141.402 1855.17L127.564 1857.6L114.925 1856.02L103.487 1850.43L95.2543 1841.42L89.1318 1836.32L87.5185 1827.1L86.5053 1815.88L80.2794 1807.47M80.2794 1807.47L83.2789 1797.44L79.7627 1790.93L74.55 1793.75L72.1503 1801.77M80.2794 1807.47L73.6602 1807.68L72.1503 1801.77M74.2816 958.075L66.9592 956.985L64.1461 951.778L49.8113 959.522L41.7857 957.13L33.9667 961.354L30.264 970.081L27.6575 971.489M98.3183 921.546L97.7971 921.828M62.816 753.68L64.8749 763.031L59.269 774.468L67.0048 788.788C66.5705 789.023 66.2437 789.872 68.4114 791.392C70.5791 792.912 76.6092 799.296 79.3534 802.298L86.3859 815.316L83.3863 825.345L90.4188 838.364L97.2446 844.767L101.464 852.578L109.696 861.584L120.948 882.414L119.955 893.04L122.768 898.248L125.788 910.07L125.995 916.686L119.582 923.513L109.55 920.524L104.338 923.34L97.6151 920.244L97.7971 921.828M62.816 753.68L59.2488 752.617C56.1048 750.952 47.5085 745.841 38.2749 738.721C29.0414 731.6 30.4148 734.558 32.2556 736.927L24.4366 741.151L26.5463 745.057L22.1404 752.482L15.128 761.315L13.6383 777.255C13.5072 780.129 13.8076 786.918 16.058 791.084L5.63276 796.716C2.95754 795.918 -3.33619 793.825 -7.10905 791.827C-10.8819 789.829 -7.27464 793.598 -4.99936 795.732L11.1755 825.674L20.6077 830.669L30.5365 830.351L34.7559 838.162L42.0783 839.252L46.2978 847.062L44.6014 856.387L45.0149 869.618L49.9377 878.731L52.9573 890.553L66.3191 915.288C68.0069 918.413 72.0417 921.726 73.8482 922.993L81.8739 925.384L89.1962 926.474L97.7971 921.828M103.473 747.225L107.073 735.19L119.194 720.234M119.194 720.234L129.723 717.91L138.845 712.982L147.471 713.367L158.103 714.351M119.194 720.234L111.169 717.842L99.5235 705.634L90.8979 705.249L83.3688 697.544L82.459 689.627M82.459 689.627L73.337 694.554L59.9951 691.671L45.6604 699.415L36.3315 697.727L19.7837 698.258L15.7709 697.062M15.7709 697.062L2.5325 697.487L-3.98331 701.007L-3.67331 710.93L-15.505 713.958L-26.9437 708.365L-36.2725 706.677L-41.5886 706.185L-41.8985 696.263C-48.4017 691.703 -64.6035 690.59 -71.8914 690.603L-85.8329 689.725L-97.7681 689.446L-109.91 682.551L-111.316 679.947L-119.342 677.556L-136.097 671.471L-148.239 664.576L-161.084 656.38L-164.6 649.871M15.7709 697.062L8.03509 682.742L-6.60975 680.563L-17.0351 686.195L-23.7575 683.099L-28.6804 673.987L-31.1001 660.158L-33.9132 654.951L-41.3388 650.554L-47.4614 645.453L-50.2744 640.245L-49.7778 634.932L-40.33 629.828M-39.3526 629.3L-40.33 629.828M-164.6 649.871L-143.749 638.607M832.501 307.995L809.437 312.046L793.8 320.493L773.838 317.823L777.541 309.095L808.817 292.2L823.359 291.072L885.911 257.281L882.021 281.244L922.419 259.421L919.233 284.687L901.382 285.921L888.351 292.961L873.106 292.787L848.346 306.163L832.501 307.995ZM963.541 260.751L960.025 254.242L969.643 244.001L979.965 235.062L986.998 248.08L963.541 260.751ZM926.266 297.705L934.085 293.481L933.278 288.871L930.568 286.972L925.356 289.788L923.453 292.497L926.266 297.705ZM836.433 221.785L838.936 217.069L831.511 212.672L827.001 216.79L826.505 222.103L828.614 226.009L836.433 221.785ZM742.172 237.389L748.688 233.869L751.191 229.153L749.081 225.248L739.959 230.176L740.766 234.785L742.172 237.389ZM1052.74 189.024L1065.77 181.984L1066.26 176.671L1062.04 168.86L1055.43 169.072L1045 174.704L1052.74 189.024ZM1101.04 144.433L1110.16 139.505L1107.74 125.677L1101.02 122.581L1094.71 132.716L1101.04 144.433ZM1067.61 113.72L1060.78 107.317L1076.42 98.8689L1080.64 106.68L1067.61 113.72ZM1093.98 109.563L1088.36 99.1485L1110.51 87.1808L1113.32 92.3881L1115.93 90.9802L1119.94 92.176L1125.57 102.591L1121.76 108.01L1110.03 114.346L1104.41 103.931L1093.98 109.563ZM1757.77 1357.03L1769.5 1350.7L1765.28 1342.89L1758.56 1339.79L1754.65 1341.9L1753.55 1349.22L1757.77 1357.03ZM1630.52 1377L1626.5 1375.81L1623.9 1377.22L1619.68 1369.41L1627.5 1365.18L1632.21 1367.68L1635.73 1374.19L1630.52 1377ZM1580.89 1400.45L1587.41 1396.93L1587.9 1391.61L1585.2 1389.72L1577.38 1393.94L1580.89 1400.45ZM1557.81 1488.6L1566.93 1483.67L1566.82 1480.36L1562.01 1474.56L1554.89 1480.08L1555.1 1486.7L1557.81 1488.6ZM1560.99 1463.33L1568.81 1459.11L1569.31 1453.79L1565.29 1452.6L1558.78 1456.12L1560.99 1463.33ZM1579.05 1468.71L1584.97 1467.2L1595.6 1468.18L1604.72 1463.25L1601.8 1454.74L1598.39 1451.54L1578.84 1462.1L1578.35 1467.41L1579.05 1468.71ZM1621.37 1466.03L1626.58 1463.22L1623.67 1454.7L1618.19 1460.14L1621.37 1466.03ZM1632.29 1455.09L1636.43 1450.28L1633.29 1444.46L1629.48 1449.88L1632.29 1455.09ZM1627.51 1492.98L1639.84 1484.64L1635.02 1478.84L1624.7 1487.78L1627.51 1492.98Z" stroke="white" stroke-width="3.23849"/>
</g>
<defs>
<clipPath id="clip0_1_3051">
<rect x="0.640076" y="0.211914" width="1507.99" height="1654.54" rx="62.4792" fill="white"/>
</clipPath>
</defs>
</svg>
